<svg width="11" height="20" viewBox="0 0 11 20" fill="none" xmlns="http://www.w3.org/2000/svg">
<path fill-rule="evenodd" clip-rule="evenodd" d="M0.225963 0.225964C0.29741 0.154337 0.382285 0.0975082 0.475728 0.0587336C0.569171 0.019959 0.669346 0 0.770515 0C0.871683 0 0.971858 0.019959 1.0653 0.0587336C1.15874 0.0975082 1.24362 0.154337 1.31507 0.225964L10.5447 9.45565C10.6164 9.5271 10.6732 9.61197 10.712 9.70542C10.7508 9.79886 10.7707 9.89903 10.7707 10.0002C10.7707 10.1014 10.7508 10.2015 10.712 10.295C10.6732 10.3884 10.6164 10.4733 10.5447 10.5448L1.31507 19.7744C1.17064 19.9189 0.974761 20 0.770515 20C0.566268 20 0.370387 19.9189 0.225963 19.7744C0.0815394 19.63 0.000402697 19.4341 0.000402697 19.2299C0.000402697 19.0256 0.0815394 18.8298 0.225963 18.6853L8.91263 10.0002L0.225963 1.31507C0.154336 1.24362 0.0975074 1.15875 0.0587328 1.0653C0.0199582 0.971859 0 0.871684 0 0.770516C0 0.669347 0.0199582 0.569172 0.0587328 0.475729C0.0975074 0.382286 0.154336 0.297411 0.225963 0.225964Z" fill="white"/>
</svg>
