<svg width="11" height="20" viewBox="0 0 11 20" fill="none" xmlns="http://www.w3.org/2000/svg">
<path fill-rule="evenodd" clip-rule="evenodd" d="M10.774 0.225964C10.7026 0.154337 10.6177 0.0975082 10.5243 0.0587336C10.4308 0.019959 10.3307 0 10.2295 0C10.1283 0 10.0281 0.019959 9.9347 0.0587336C9.84126 0.0975082 9.75638 0.154337 9.68493 0.225964L0.455252 9.45565C0.383624 9.5271 0.326797 9.61197 0.288022 9.70542C0.249248 9.79886 0.229288 9.89903 0.229288 10.0002C0.229288 10.1014 0.249248 10.2015 0.288022 10.295C0.326797 10.3884 0.383624 10.4733 0.455252 10.5448L9.68493 19.7744C9.82936 19.9189 10.0252 20 10.2295 20C10.4337 20 10.6296 19.9189 10.774 19.7744C10.9185 19.63 10.9996 19.4341 10.9996 19.2299C10.9996 19.0256 10.9185 18.8298 10.774 18.6853L2.08737 10.0002L10.774 1.31507C10.8457 1.24362 10.9025 1.15875 10.9413 1.0653C10.98 0.971859 11 0.871684 11 0.770516C11 0.669347 10.98 0.569172 10.9413 0.475729C10.9025 0.382286 10.8457 0.297411 10.774 0.225964Z" fill="white"/>
</svg>
