<svg width="12" height="12" viewBox="0 0 12 12" fill="none" xmlns="http://www.w3.org/2000/svg">
<path d="M10.8243 8.18318L9.12754 7.98946C8.92802 7.96603 8.7258 7.98811 8.53605 8.05406C8.3463 8.12001 8.17396 8.22811 8.03199 8.37023L6.80284 9.59937C4.90661 8.63472 3.36528 7.09339 2.40063 5.19716L3.63645 3.96133C3.9237 3.67408 4.06398 3.27327 4.01722 2.86579L3.8235 1.18239C3.78577 0.856456 3.62942 0.555805 3.38425 0.337745C3.13909 0.119685 2.82226 -0.000534459 2.49415 1.78624e-06H1.33848C0.583627 1.78624e-06 -0.0443071 0.627936 0.00245394 1.38279C0.356502 7.08764 4.91904 11.6435 10.6172 11.9975C11.3721 12.0443 12 11.4164 12 10.6615V9.50585C12.0067 8.83116 11.499 8.26334 10.8243 8.18318Z" fill="black"/>
</svg>
