<svg width="18" height="24" viewBox="0 0 18 24" fill="none" xmlns="http://www.w3.org/2000/svg">
<path d="M0.447445 11.1016C0.072943 11.7019 -0.0851747 13.592 0.0448863 14.8465C0.0906229 15.2605 0.165569 15.6059 0.274722 15.8119C0.424538 16.0969 0.676281 16.2665 0.963384 16.2769C1.14756 16.2862 1.26194 16.255 4.72385 15.142C4.72385 15.142 6.26237 14.6509 6.26867 14.6479C6.65248 14.5501 6.91045 14.1974 6.93543 13.747C6.96041 13.2852 6.7222 12.8774 6.32894 12.7296C6.32894 12.7296 5.24402 12.2876 5.24195 12.2876C1.52199 10.7532 1.35457 10.6928 1.16732 10.6908C0.880213 10.6793 0.625318 10.8239 0.447445 11.1016Z" fill="#FEF8F3"/>
<path d="M8.75987 22.5346C8.82021 22.3598 8.82744 22.2402 8.83789 18.6035C8.83789 18.6035 8.8462 16.9964 8.84719 16.9807C8.87218 16.5865 8.61736 16.2276 8.20019 16.0674C7.77058 15.9021 7.30768 16.004 7.04763 16.3274C7.04763 16.3274 6.28825 17.2283 6.28617 17.2283C3.68034 20.2898 3.57111 20.4312 3.50762 20.6122C3.46919 20.7183 3.45358 20.8328 3.46603 20.9461C3.48164 21.1084 3.55551 21.2686 3.67719 21.4184C4.28161 22.1362 7.17969 23.2025 8.10557 23.0443C8.42696 22.9861 8.66102 22.8051 8.75987 22.5346Z" fill="#FEF8F3"/>
<path d="M14.6238 21.2699C15.4976 20.9214 17.4034 18.4966 17.5375 17.5635C17.5843 17.239 17.4824 16.9591 17.2588 16.7802C17.1121 16.6699 17.0007 16.6273 13.5409 15.4913C13.5409 15.4913 12.0232 14.99 12.0035 14.9806C11.6363 14.8381 11.217 14.9701 10.9352 15.3176C10.6417 15.6744 10.5981 16.1457 10.8322 16.5014L11.4428 17.4959C13.4962 20.8309 13.6533 21.067 13.801 21.1825C14.0299 21.3625 14.3211 21.3916 14.6238 21.2699Z" fill="#FEF8F3"/>
<path d="M12.8568 12.6825C16.7889 11.7296 16.9408 11.6797 17.0958 11.5777C17.334 11.4175 17.4536 11.1492 17.4328 10.8226C17.4328 10.8121 17.4349 10.8006 17.4328 10.7893C17.3319 9.82388 15.6405 7.31275 14.8072 6.90496C14.5118 6.76353 14.2164 6.77283 13.9708 6.93725C13.819 7.03603 13.7077 7.18584 11.6022 10.0652C11.6022 10.0652 10.6514 11.3603 10.64 11.3728C10.3893 11.6776 10.3852 12.1145 10.6307 12.489C10.8845 12.877 11.313 13.0663 11.7063 12.9571C11.7063 12.9571 11.6907 12.9852 11.6865 12.9904C11.8799 12.9176 12.2264 12.8323 12.8568 12.6825Z" fill="#FEF8F3"/>
<path d="M8.91187 9.43617C8.8443 7.8779 8.3751 0.939465 8.31998 0.618048C8.24096 0.326779 8.01313 0.118735 7.68651 0.0365552C6.68261 -0.212067 2.8462 0.862519 2.13571 1.59584C1.90687 1.83406 1.82262 2.12739 1.89127 2.38751C2.00365 2.61734 6.75648 10.0957 6.75648 10.0957C7.45868 11.2347 8.03181 11.0579 8.22013 10.9986C8.40631 10.9414 8.97636 10.7645 8.91187 9.43617Z" fill="#FEF8F3"/>
</svg>
