<svg width="119" height="17" viewBox="0 0 119 17" fill="none" xmlns="http://www.w3.org/2000/svg">
<path d="M2.00709 11.7309C5.16072 11.2027 16.7537 7.44118 16.2706 14.2796C16.1786 15.5814 17.8374 14.9218 18.3611 14.3291C20.4946 11.915 21.5329 8.07709 22.8985 5.18207C23.1513 4.64634 24.512 0.469966 25.0384 2.69892C25.665 5.35194 25.7591 8.18001 25.6785 10.898C25.663 11.4229 25.1837 12.1684 25.602 12.4715C25.7058 12.5467 25.8555 12.5133 25.9821 12.5023C27.1097 12.4042 28.2202 12.1506 29.3457 12.03C44.0975 10.4494 59.1325 10.4922 73.9407 10.0586C88.2918 9.63828 102.654 9.25163 117.013 9.28278" stroke="#FE89A0" stroke-width="3" stroke-linecap="round"/>
</svg>
