<svg width="23" height="23" viewBox="0 0 23 23" fill="none" xmlns="http://www.w3.org/2000/svg">
<path fill-rule="evenodd" clip-rule="evenodd" d="M11.18 0C8.1442 0 7.76322 0.0129001 6.5704 0.0670801C5.38016 0.12126 4.56746 0.31046 3.85624 0.58652C3.11037 0.867436 2.43476 1.30767 1.87652 1.87652C1.30756 2.43501 0.867325 3.11093 0.58652 3.8571C0.31046 4.56746 0.12212 5.38016 0.0670801 6.5704C0.0129001 7.76322 0 8.1442 0 11.18C0 14.2158 0.0129001 14.5968 0.0670801 15.7896C0.12126 16.9798 0.31046 17.7925 0.58652 18.5029C0.8729 19.2382 1.25474 19.8617 1.87652 20.4835C2.43476 21.0523 3.11037 21.4926 3.85624 21.7735C4.56746 22.0487 5.38016 22.2379 6.5704 22.2929C7.76322 22.3471 8.1442 22.36 11.18 22.36C14.2158 22.36 14.5968 22.3471 15.7896 22.2929C16.9798 22.2387 17.7925 22.0495 18.5029 21.7735C19.2491 21.4927 19.925 21.0525 20.4835 20.4835C21.0524 19.925 21.4927 19.2491 21.7735 18.5029C22.0487 17.7925 22.2379 16.9798 22.2929 15.7896C22.3471 14.5968 22.36 14.2158 22.36 11.18C22.36 8.1442 22.3471 7.76322 22.2929 6.5704C22.2387 5.38016 22.0495 4.56746 21.7726 3.8571C21.4921 3.11101 21.0521 2.4351 20.4835 1.87652C19.925 1.30754 19.2491 0.867301 18.5029 0.58652C17.7925 0.31132 16.9798 0.12212 15.7896 0.0670801C14.5968 0.0129001 14.2158 0 11.18 0ZM11.18 2.01412C14.1651 2.01412 14.5185 2.02616 15.6976 2.07948C16.7872 2.12936 17.3797 2.31168 17.7736 2.46476C18.2956 2.66772 18.668 2.90938 19.0593 3.30068C19.4506 3.69198 19.6923 4.06436 19.8952 4.58638C20.0483 4.98026 20.2306 5.57194 20.2805 6.66242C20.3338 7.84062 20.3459 8.19494 20.3459 11.18C20.3459 14.1651 20.3338 14.5185 20.2805 15.6976C20.2306 16.7881 20.0483 17.3797 19.8952 17.7736C19.7162 18.2593 19.4305 18.6986 19.0593 19.0593C18.6986 19.4305 18.2593 19.7162 17.7736 19.8952C17.3797 20.0483 16.7872 20.2306 15.6976 20.2805C14.5194 20.3338 14.1651 20.3459 11.18 20.3459C8.19494 20.3459 7.84062 20.3338 6.66242 20.2805C5.57194 20.2306 4.98026 20.0483 4.58638 19.8952C4.10073 19.7162 3.66139 19.4305 3.30068 19.0593C2.92953 18.6985 2.6439 18.2592 2.46476 17.7736C2.31168 17.3797 2.12936 16.7881 2.07948 15.6976C2.02616 14.5194 2.01412 14.1651 2.01412 11.18C2.01412 8.19494 2.02616 7.84148 2.07948 6.66242C2.12936 5.57194 2.31168 4.98026 2.46476 4.58638C2.66772 4.06436 2.90938 3.69198 3.30068 3.30068C3.66141 2.92948 4.10074 2.64385 4.58638 2.46476C4.98026 2.31168 5.57194 2.12936 6.66242 2.07948C7.84062 2.02616 8.19494 2.01412 11.18 2.01412Z" fill="#FEF8F3"/>
<path fill-rule="evenodd" clip-rule="evenodd" d="M11.02 5.29C9.4234 5.29 7.89219 5.92425 6.76322 7.05322C5.63425 8.18219 5 9.7134 5 11.31C5 12.9066 5.63425 14.4378 6.76322 15.5668C7.89219 16.6957 9.4234 17.33 11.02 17.33C12.6166 17.33 14.1478 16.6957 15.2768 15.5668C16.4057 14.4378 17.04 12.9066 17.04 11.31C17.04 9.7134 16.4057 8.18219 15.2768 7.05322C14.1478 5.92425 12.6166 5.29 11.02 5.29ZM11.02 15.18C9.99361 15.18 9.00926 14.7723 8.2835 14.0465C7.55773 13.3207 7.15 12.3364 7.15 11.31C7.15 10.2836 7.55773 9.29926 8.2835 8.5735C9.00926 7.84773 9.99361 7.44 11.02 7.44C12.0464 7.44 13.0307 7.84773 13.7565 8.5735C14.4823 9.29926 14.89 10.2836 14.89 11.31C14.89 12.3364 14.4823 13.3207 13.7565 14.0465C13.0307 14.7723 12.0464 15.18 11.02 15.18ZM18.502 5.376C18.502 5.5567 18.4664 5.73563 18.3973 5.90257C18.3281 6.06952 18.2267 6.22121 18.099 6.34898C17.9712 6.47675 17.8195 6.57811 17.6526 6.64726C17.4856 6.71641 17.3067 6.752 17.126 6.752C16.9453 6.752 16.7664 6.71641 16.5994 6.64726C16.4325 6.57811 16.2808 6.47675 16.153 6.34898C16.0252 6.22121 15.9239 6.06952 15.8547 5.90257C15.7856 5.73563 15.75 5.5567 15.75 5.376C15.75 5.01106 15.895 4.66107 16.153 4.40302C16.4111 4.14497 16.7611 4 17.126 4C17.4909 4 17.8409 4.14497 18.099 4.40302C18.357 4.66107 18.502 5.01106 18.502 5.376Z" fill="#FEF8F3"/>
</svg>
