<svg width="11" height="7" viewBox="0 0 11 7" fill="none" xmlns="http://www.w3.org/2000/svg">
<mask id="path-1-inside-1_616_598" fill="white">
<path fill-rule="evenodd" clip-rule="evenodd" d="M8.1639 0.12814C8.01204 -0.0427132 7.7658 -0.0427132 7.61394 0.12814C7.46208 0.298997 7.46208 0.576005 7.61394 0.746862L9.67229 3.0625H4.38892V3.93751H9.67229L7.61394 6.25315C7.46208 6.424 7.46208 6.70102 7.61394 6.87187C7.7658 7.04271 8.01204 7.04271 8.1639 6.87187L10.8861 3.80936C11.038 3.63852 11.038 3.36149 10.8861 3.19065L8.1639 0.12814ZM1 3C0.723858 3 0.5 3.22386 0.5 3.5C0.5 3.77614 0.723858 4 1 4H3C3.27614 4 3.5 3.77614 3.5 3.5C3.5 3.22386 3.27614 3 3 3H1Z"/>
</mask>
<path fill-rule="evenodd" clip-rule="evenodd" d="M8.1639 0.12814C8.01204 -0.0427132 7.7658 -0.0427132 7.61394 0.12814C7.46208 0.298997 7.46208 0.576005 7.61394 0.746862L9.67229 3.0625H4.38892V3.93751H9.67229L7.61394 6.25315C7.46208 6.424 7.46208 6.70102 7.61394 6.87187C7.7658 7.04271 8.01204 7.04271 8.1639 6.87187L10.8861 3.80936C11.038 3.63852 11.038 3.36149 10.8861 3.19065L8.1639 0.12814ZM1 3C0.723858 3 0.5 3.22386 0.5 3.5C0.5 3.77614 0.723858 4 1 4H3C3.27614 4 3.5 3.77614 3.5 3.5C3.5 3.22386 3.27614 3 3 3H1Z" fill="#FE89A0"/>
<path d="M7.61394 0.12814L5.74537 -1.53272L5.74535 -1.5327L7.61394 0.12814ZM8.1639 0.12814L6.29534 1.789L6.29538 1.78905L8.1639 0.12814ZM7.61394 0.746862L5.74535 2.4077L5.74542 2.40777L7.61394 0.746862ZM9.67229 3.0625V5.5625H15.2394L11.5408 1.40159L9.67229 3.0625ZM4.38892 3.0625V0.562505H1.88892V3.0625H4.38892ZM4.38892 3.93751H1.88892V6.43751H4.38892V3.93751ZM9.67229 3.93751L11.5408 5.59842L15.2394 1.43751H9.67229V3.93751ZM7.61394 6.25315L9.48246 7.91406L9.48246 7.91406L7.61394 6.25315ZM8.1639 6.87187L10.0324 8.53278L10.0324 8.53278L8.1639 6.87187ZM10.8861 3.80936L12.7547 5.47027L12.7547 5.47027L10.8861 3.80936ZM10.8861 3.19065L9.01761 4.85156L9.01761 4.85156L10.8861 3.19065ZM9.4825 1.789C9.09846 2.22107 8.52497 2.5 7.88892 2.5C7.25287 2.5 6.67938 2.22107 6.29534 1.789L10.0325 -1.53272C8.88613 -2.82243 6.89172 -2.82243 5.74537 -1.53272L9.4825 1.789ZM9.48252 -0.913977C10.1725 -0.137641 10.1725 1.01264 9.48252 1.78898L5.74535 -1.5327C4.7516 -0.414649 4.7516 1.28965 5.74535 2.4077L9.48252 -0.913977ZM11.5408 1.40159L9.48246 -0.914049L5.74542 2.40777L7.80377 4.72342L11.5408 1.40159ZM4.38892 5.5625H9.67229V0.562505H4.38892V5.5625ZM6.88892 3.93751V3.0625H1.88892V3.93751H6.88892ZM9.67229 1.43751H4.38892V6.43751H9.67229V1.43751ZM9.48246 7.91406L11.5408 5.59842L7.80377 2.2766L5.74541 4.59224L9.48246 7.91406ZM9.48246 5.21096C10.1726 5.98733 10.1726 7.13769 9.48246 7.91406L5.74541 4.59224C4.75158 5.7103 4.75158 7.41472 5.74541 8.53278L9.48246 5.21096ZM6.29538 5.21096C6.67944 4.77889 7.25292 4.5 7.88892 4.5C8.52492 4.5 9.0984 4.77889 9.48246 5.21096L5.74541 8.53278C6.89175 9.82241 8.88609 9.82241 10.0324 8.53278L6.29538 5.21096ZM9.01761 2.14845L6.29538 5.21096L10.0324 8.53278L12.7547 5.47027L9.01761 2.14845ZM9.01761 4.85156C8.3275 4.07519 8.3275 2.92482 9.01761 2.14845L12.7547 5.47027C13.7485 4.35221 13.7485 2.6478 12.7547 1.52974L9.01761 4.85156ZM6.29538 1.78905L9.01761 4.85156L12.7547 1.52974L10.0324 -1.53277L6.29538 1.78905ZM3 3.5C3 4.60457 2.10457 5.5 1 5.5V0.5C-0.656854 0.5 -2 1.84315 -2 3.5H3ZM1 1.5C2.10457 1.5 3 2.39543 3 3.5H-2C-2 5.15685 -0.656854 6.5 1 6.5V1.5ZM3 1.5H1V6.5H3V1.5ZM1 3.5C1 2.39543 1.89543 1.5 3 1.5V6.5C4.65685 6.5 6 5.15685 6 3.5H1ZM3 5.5C1.89543 5.5 1 4.60457 1 3.5H6C6 1.84315 4.65685 0.5 3 0.5V5.5ZM1 5.5H3V0.5H1V5.5Z" fill="#FE89A0" mask="url(#path-1-inside-1_616_598)"/>
</svg>
