<svg width="102" height="15" viewBox="0 0 102 15" fill="none" xmlns="http://www.w3.org/2000/svg">
<path d="M2 10.1068C4.69222 9.66109 14.5856 6.50642 14.1857 12.2044C14.1096 13.289 15.5249 12.7365 15.9711 12.2418C17.7886 10.2268 18.6682 7.02756 19.8291 4.61325C20.044 4.16648 21.1983 0.684698 21.652 2.54068C22.192 4.74978 22.2776 7.10566 22.2138 9.37018C22.2015 9.80749 21.7936 10.4294 22.1514 10.6811C22.2402 10.7436 22.3679 10.7155 22.476 10.7061C23.4388 10.6224 24.3867 10.4091 25.3477 10.3066C37.9428 8.96311 50.7827 8.97166 63.4281 8.5836C75.683 8.20753 87.948 7.85945 100.21 7.85945" stroke="#FE89A0" stroke-width="3" stroke-linecap="round"/>
</svg>
