<svg width="18" height="25" viewBox="0 0 18 25" fill="none" xmlns="http://www.w3.org/2000/svg">
<path d="M9.00034 0C3.56363 0 0 4.11146 0 9.18338C0 13.9179 6.46892 19.4463 8.88368 24.9218H8.88389C8.90265 24.969 8.94866 25 9.00011 25C9.05135 25 9.09758 24.969 9.11633 24.9218C11.5314 19.4466 18 13.9184 18 9.18338C18 4.11135 14.4365 0 9.00022 0H9.00034ZM9.00034 13.6284C7.80675 13.6284 6.66223 13.16 5.81818 12.3265C4.97436 11.493 4.50011 10.3623 4.50011 9.18354C4.50011 8.00458 4.97436 6.87408 5.81818 6.04037C6.66223 5.20689 7.80675 4.73846 9.00034 4.73846C10.1937 4.73846 11.3385 5.2069 12.1823 6.04037C13.0261 6.87408 13.5003 8.00458 13.5003 9.18354C13.499 10.3618 13.0244 11.4917 12.1807 12.325C11.3371 13.1583 10.1933 13.6271 9.00028 13.6285L9.00034 13.6284Z" fill="#5E5E5E"/>
</svg>
