<svg width="22" height="29" viewBox="0 0 22 29" fill="none" xmlns="http://www.w3.org/2000/svg">
<path d="M10.735 0C7.88789 0 5.15744 1.13099 3.14429 3.14429C1.13099 5.1573 0 7.88775 0 10.735C0 13.5822 1.13099 16.3128 3.14429 18.3257C5.15759 20.3389 7.88804 21.4699 10.735 21.4699C13.5819 21.4699 16.3125 20.3389 18.3257 18.3257C20.339 16.3126 21.4699 13.5819 21.4699 10.735C21.4699 7.88804 20.339 5.15744 18.3257 3.14429C16.3126 1.13099 13.5822 0 10.735 0ZM10.735 16.385C9.23643 16.385 7.79933 15.7898 6.73982 14.73C5.68002 13.6705 5.08481 12.2334 5.08481 10.7348C5.08481 9.23657 5.68002 7.79947 6.73982 6.73996C7.79933 5.68016 9.23643 5.08495 10.735 5.08495C12.2332 5.08495 13.6703 5.68016 14.7301 6.73996C15.7896 7.79947 16.3848 9.23657 16.3848 10.7348C16.3848 12.2334 15.7896 13.6705 14.7301 14.73C13.6703 15.7898 12.2332 16.385 10.735 16.385Z" fill="#FE89A0"/>
<path d="M7.50392 22.1479L10.7359 28.2501L13.9676 22.1479C11.8551 22.7507 9.61648 22.7507 7.50392 22.1479Z" fill="#FE89A0"/>
</svg>
