<svg width="15" height="11" viewBox="0 0 15 11" fill="none" xmlns="http://www.w3.org/2000/svg">
<path d="M13.7392 0.00482603C13.8016 -0.00160868 13.8646 -0.00160868 13.927 0.00482603L7.28879 6.6339L0.668873 0.0414734C0.74781 0.0184189 0.829458 0.0060913 0.911693 0.00482603H13.7392Z" fill="#FE89A0"/>
<path fill-rule="evenodd" clip-rule="evenodd" d="M7.93474 7.2846L14.605 0.641778C14.6378 0.731497 14.6564 0.825787 14.66 0.921235V10.0837C14.66 10.3268 14.5635 10.5598 14.3917 10.7316C14.2198 10.9035 13.9868 11 13.7438 11H0.916251C0.673236 11 0.440202 10.9035 0.268377 10.7316C0.096524 10.5598 0 10.3268 0 10.0837V0.921235C0.000978662 0.843833 0.0117439 0.766865 0.0320721 0.692172L6.64282 7.2846C6.81448 7.45525 7.04673 7.55104 7.28877 7.55104C7.53083 7.55104 7.76305 7.45525 7.93474 7.2846ZM0.90708 10.0837H1.54388L4.88361 6.7715L4.23766 6.12554L0.90708 9.42863V10.0837ZM13.0932 10.0837H13.7346L13.73 9.42863L10.3995 6.12554L9.75348 6.7715L13.0932 10.0837Z" fill="#FE89A0"/>
</svg>
