<svg width="98" height="14" viewBox="0 0 98 14" fill="none" xmlns="http://www.w3.org/2000/svg">
<path d="M1.52209 9.80634C4.10455 9.37878 13.5946 6.35272 13.211 11.8184C13.138 12.8588 14.4956 12.3288 14.9236 11.8543C16.667 9.9214 17.5107 6.85262 18.6243 4.53674C18.8304 4.10818 19.9377 0.768351 20.3729 2.54867C20.8909 4.6677 20.973 6.92754 20.9118 9.09974C20.9 9.51922 20.5087 10.1157 20.8519 10.3573C20.9371 10.4172 21.0596 10.3902 21.1633 10.3812C22.0869 10.3009 22.9961 10.0963 23.9179 9.99796C35.9995 8.70926 48.3159 8.71746 60.4458 8.34523C72.2011 7.98448 83.9661 7.6506 95.7281 7.6506" stroke="#FE89A0" stroke-width="3" stroke-linecap="round"/>
</svg>
