<svg width="20" height="27" viewBox="0 0 20 27" fill="none" xmlns="http://www.w3.org/2000/svg">
<path d="M8.06568 17.703C7.98527 17.9228 7.96383 18.1373 7.91558 18.341C7.70652 19.1826 7.5457 20.0349 7.34199 20.8765C7.18654 21.5145 7.02036 22.1577 6.79521 22.7796C6.60223 23.3264 6.33955 23.8571 6.07688 24.3771C5.66947 25.1972 5.17093 25.9692 4.62951 26.7036C4.53838 26.8269 4.49013 27.0413 4.30251 26.993C4.07736 26.9341 4.11488 26.7036 4.09344 26.5213C3.93798 25.3581 3.8951 24.1948 3.93262 23.0262C3.95406 22.4151 3.97551 21.7932 4.1256 21.1982C4.28106 20.5924 4.39364 19.976 4.53837 19.3702C4.64023 18.9414 4.73672 18.5018 4.80105 18.0622C4.86001 17.6494 5.02083 17.2527 5.08516 16.8453C5.17093 16.2932 5.32639 15.7571 5.43896 15.2103C5.54082 14.7172 5.66947 14.224 5.77132 13.7308C5.84101 13.3931 5.9107 13.0607 6.00183 12.7284C6.04472 12.5675 6.01255 12.396 5.93214 12.2191C5.71772 11.7474 5.66947 11.2274 5.59442 10.7235C5.49793 10.0748 5.55154 9.42084 5.707 8.78828C5.94823 7.818 6.33419 6.92813 7.22942 6.34918C8.22114 5.71127 9.62027 6.00074 10.0598 7.164C10.3386 7.91449 10.2796 8.65426 10.1724 9.41548C10.0813 10.0748 9.88294 10.7074 9.70068 11.3399C9.55594 11.8278 9.40049 12.3156 9.27719 12.8088C9.1807 13.2108 8.99844 13.6075 9.01988 14.0364C9.0306 14.2722 8.97699 14.5027 8.99308 14.7493C9.05204 15.7089 9.59883 16.3146 10.4029 16.6792C10.8532 16.8829 11.3732 16.8936 11.8985 16.7596C12.4507 16.6202 12.9064 16.3629 13.3352 16.0252C13.823 15.6392 14.1554 15.1246 14.477 14.6099C14.8094 14.0792 15.0292 13.4842 15.2168 12.8892C15.458 12.1065 15.6242 11.2971 15.7368 10.4769C15.8225 9.83361 15.8225 9.19569 15.8386 8.55777C15.8654 7.38379 15.5652 6.28486 15.0024 5.27705C14.6539 4.64986 14.1339 4.15668 13.5389 3.72247C13.0404 3.3633 12.4829 3.17568 11.9414 2.94517C11.7592 2.86476 11.5501 2.85404 11.3571 2.80579C10.7246 2.65034 10.0706 2.66106 9.42729 2.68786C8.63391 2.72002 7.86734 2.89157 7.13293 3.19176C6.35564 3.5134 5.65875 3.96906 5.05836 4.55337C4.43116 5.13768 3.93798 5.83456 3.55202 6.61186C3.25182 7.22297 3.03203 7.87697 2.93018 8.53633C2.80688 9.35651 2.71039 10.182 2.86585 11.029C2.96234 11.5705 3.13388 12.0797 3.35367 12.5729C3.45552 12.8034 3.61634 13.0125 3.78788 13.2001C3.98623 13.4199 4.01839 13.6611 3.96479 13.9184C3.87365 14.3687 3.76108 14.819 3.64851 15.2639C3.56274 15.607 3.17141 15.7625 2.83905 15.5963C1.83125 15.0763 1.11292 14.2883 0.662624 13.2483C0.249854 12.2888 0.0139858 11.2863 0.00862518 10.2303C0.00326453 9.49053 -0.0396209 8.7454 0.13192 8.02171C0.265936 7.4374 0.421395 6.86381 0.635821 6.30094C0.909214 5.58261 1.27374 4.92861 1.69187 4.29069C2.31371 3.3365 3.1178 2.54848 4.03983 1.88376C4.74208 1.3745 5.50865 0.956371 6.31811 0.666895C6.82737 0.484633 7.35272 0.350617 7.88878 0.238043C8.84834 0.04506 9.8079 -0.0246285 10.7728 0.00753539C11.2928 0.0236173 11.8021 0.152273 12.3167 0.227322C13.0136 0.334535 13.6461 0.597207 14.2787 0.8706C14.7022 1.05286 15.1042 1.29409 15.4902 1.55676C16.1013 1.96953 16.6481 2.45735 17.1359 3.00414C17.7149 3.64742 18.1651 4.37647 18.535 5.16448C18.7173 5.54509 18.8406 5.94714 19.0121 6.3331C19.0872 6.49928 19.1086 6.70299 19.1354 6.89061C19.1837 7.20153 19.2212 7.52317 19.2855 7.82336C19.4195 8.45592 19.3713 9.08312 19.3499 9.70495C19.3338 10.2357 19.2909 10.7717 19.1676 11.2971C19.1086 11.5437 19.1247 11.7956 19.0604 12.0529C18.9532 12.4657 18.8567 12.8838 18.7441 13.2966C18.5726 13.9399 18.3206 14.551 18.0258 15.1407C17.3932 16.4165 16.557 17.5315 15.3615 18.3517C14.938 18.6412 14.4985 18.8985 14.0214 19.0861C12.9707 19.4881 11.8717 19.665 10.7621 19.4453C9.73821 19.2415 8.85906 18.743 8.2265 17.8692C8.18898 17.7995 8.13001 17.762 8.06568 17.703Z" fill="#FEF8F3"/>
</svg>
