<svg width="129" height="18" viewBox="0 0 129 18" fill="none" xmlns="http://www.w3.org/2000/svg">
<path d="M2 12.3356C5.43236 11.7673 18.0456 7.74533 17.5358 15.0098C17.4388 16.3926 19.2432 15.6882 19.8121 15.0575C22.1293 12.4885 23.2506 8.40974 24.7307 5.33169C25.0046 4.76209 26.4763 0.323093 27.0547 2.68933C27.7432 5.50575 27.8524 8.50932 27.771 11.3964C27.7553 11.9539 27.2353 12.7468 27.6914 13.0678C27.8046 13.1474 27.9675 13.1116 28.1053 13.0996C29.3328 12.9929 30.5412 12.7209 31.7664 12.5903C47.8242 10.8774 64.1941 10.8883 80.3159 10.3936C95.9401 9.91411 111.577 9.47035 127.21 9.47035" stroke="#FE89A0" stroke-width="3" stroke-linecap="round"/>
</svg>
