<svg width="11" height="7" viewBox="0 0 11 7" fill="none" xmlns="http://www.w3.org/2000/svg">
<path fill-rule="evenodd" clip-rule="evenodd" d="M0.5 3.5C0.5 3.22386 0.723858 3 1 3H3C3.27614 3 3.5 3.22386 3.5 3.5C3.5 3.77614 3.27614 4 3 4H1C0.723858 4 0.5 3.77614 0.5 3.5Z" fill="#FE89A0"/>
<mask id="path-2-inside-1_501_419" fill="white">
<path fill-rule="evenodd" clip-rule="evenodd" d="M7.61391 0.12814C7.76577 -0.0427132 8.01201 -0.0427132 8.16387 0.12814L10.8861 3.19065C11.038 3.36149 11.038 3.63852 10.8861 3.80936L8.16387 6.87187C8.01201 7.04271 7.76577 7.04271 7.61391 6.87187C7.46205 6.70102 7.46205 6.424 7.61391 6.25315L9.67226 3.93751C9.67226 3.93751 4.89776 3.93751 4.38889 3.93751V3.0625H9.67226L7.61391 0.746862C7.46205 0.576005 7.46205 0.298997 7.61391 0.12814Z"/>
</mask>
<path fill-rule="evenodd" clip-rule="evenodd" d="M7.61391 0.12814C7.76577 -0.0427132 8.01201 -0.0427132 8.16387 0.12814L10.8861 3.19065C11.038 3.36149 11.038 3.63852 10.8861 3.80936L8.16387 6.87187C8.01201 7.04271 7.76577 7.04271 7.61391 6.87187C7.46205 6.70102 7.46205 6.424 7.61391 6.25315L9.67226 3.93751C9.67226 3.93751 4.89776 3.93751 4.38889 3.93751V3.0625H9.67226L7.61391 0.746862C7.46205 0.576005 7.46205 0.298997 7.61391 0.12814Z" fill="#FE89A0"/>
<path d="M7.61391 0.12814L5.74534 -1.53272L5.74532 -1.5327L7.61391 0.12814ZM8.16387 0.12814L6.29531 1.789L6.29535 1.78905L8.16387 0.12814ZM10.8861 3.19065L9.01758 4.85156L9.01758 4.85156L10.8861 3.19065ZM10.8861 3.80936L9.01758 2.14845L10.8861 3.80936ZM8.16387 6.87187L10.0324 8.53278L8.16387 6.87187ZM7.61391 6.25315L9.48243 7.91406V7.91406L7.61391 6.25315ZM9.67226 3.93751L11.5408 5.59842L15.2394 1.43751H9.67226V3.93751ZM4.38889 3.93751H1.88889V6.43751H4.38889V3.93751ZM4.38889 3.0625V0.562505H1.88889V3.0625H4.38889ZM9.67226 3.0625V5.5625H15.2394L11.5408 1.40159L9.67226 3.0625ZM7.61391 0.746862L5.74532 2.4077L5.74538 2.40777L7.61391 0.746862ZM9.48247 1.789C9.09843 2.22107 8.52494 2.5 7.88889 2.5C7.25284 2.5 6.67935 2.22107 6.29531 1.789L10.0324 -1.53272C8.8861 -2.82243 6.89169 -2.82243 5.74534 -1.53272L9.48247 1.789ZM6.29535 1.78905L9.01758 4.85156L12.7546 1.52974L10.0324 -1.53277L6.29535 1.78905ZM9.01758 4.85156C8.32747 4.07519 8.32747 2.92482 9.01758 2.14845L12.7546 5.47027C13.7485 4.35221 13.7485 2.6478 12.7546 1.52974L9.01758 4.85156ZM9.01758 2.14845L6.29535 5.21096L10.0324 8.53278L12.7546 5.47027L9.01758 2.14845ZM6.29535 5.21096C6.67941 4.77889 7.25289 4.5 7.88889 4.5C8.52489 4.5 9.09837 4.77889 9.48243 5.21096L5.74538 8.53278C6.89172 9.82241 8.88606 9.82241 10.0324 8.53278L6.29535 5.21096ZM9.48243 5.21096C10.1725 5.98733 10.1725 7.13769 9.48243 7.91406L5.74538 4.59224C4.75155 5.7103 4.75155 7.41472 5.74538 8.53278L9.48243 5.21096ZM9.48243 7.91406L11.5408 5.59842L7.80374 2.2766L5.74538 4.59224L9.48243 7.91406ZM9.67226 3.93751C9.67226 1.43751 9.67224 1.43751 9.6722 1.43751C9.67217 1.43751 9.67211 1.43751 9.67204 1.43751C9.67197 1.43751 9.67188 1.43751 9.67177 1.43751C9.67166 1.43751 9.67153 1.43751 9.67139 1.43751C9.67124 1.43751 9.67108 1.43751 9.6709 1.43751C9.67072 1.43751 9.67052 1.43751 9.67031 1.43751C9.67009 1.43751 9.66986 1.43751 9.66961 1.43751C9.66935 1.43751 9.66908 1.43751 9.6688 1.43751C9.66851 1.43751 9.6682 1.43751 9.66788 1.43751C9.66756 1.43751 9.66722 1.43751 9.66686 1.43751C9.66651 1.43751 9.66613 1.43751 9.66574 1.43751C9.66535 1.43751 9.66494 1.43751 9.66451 1.43751C9.66408 1.43751 9.66364 1.43751 9.66317 1.43751C9.66271 1.43751 9.66223 1.43751 9.66173 1.43751C9.66124 1.43751 9.66072 1.43751 9.66019 1.43751C9.65966 1.43751 9.65911 1.43751 9.65855 1.43751C9.65798 1.43751 9.6574 1.43751 9.6568 1.43751C9.6562 1.43751 9.65558 1.43751 9.65495 1.43751C9.65431 1.43751 9.65366 1.43751 9.653 1.43751C9.65233 1.43751 9.65164 1.43751 9.65094 1.43751C9.65024 1.43751 9.64952 1.43751 9.64879 1.43751C9.64805 1.43751 9.6473 1.43751 9.64653 1.43751C9.64576 1.43751 9.64498 1.43751 9.64417 1.43751C9.64337 1.43751 9.64255 1.43751 9.64172 1.43751C9.64088 1.43751 9.64003 1.43751 9.63916 1.43751C9.63829 1.43751 9.63741 1.43751 9.63651 1.43751C9.6356 1.43751 9.63469 1.43751 9.63375 1.43751C9.63282 1.43751 9.63187 1.43751 9.6309 1.43751C9.62993 1.43751 9.62895 1.43751 9.62795 1.43751C9.62695 1.43751 9.62593 1.43751 9.6249 1.43751C9.62387 1.43751 9.62282 1.43751 9.62176 1.43751C9.62069 1.43751 9.61961 1.43751 9.61852 1.43751C9.61742 1.43751 9.61631 1.43751 9.61518 1.43751C9.61405 1.43751 9.6129 1.43751 9.61174 1.43751C9.61058 1.43751 9.60941 1.43751 9.60821 1.43751C9.60702 1.43751 9.60581 1.43751 9.60459 1.43751C9.60336 1.43751 9.60212 1.43751 9.60087 1.43751C9.59961 1.43751 9.59834 1.43751 9.59706 1.43751C9.59577 1.43751 9.59447 1.43751 9.59315 1.43751C9.59183 1.43751 9.5905 1.43751 9.58915 1.43751C9.5878 1.43751 9.58643 1.43751 9.58505 1.43751C9.58367 1.43751 9.58228 1.43751 9.58086 1.43751C9.57945 1.43751 9.57803 1.43751 9.57659 1.43751C9.57514 1.43751 9.57369 1.43751 9.57221 1.43751C9.57074 1.43751 9.56925 1.43751 9.56775 1.43751C9.56625 1.43751 9.56473 1.43751 9.5632 1.43751C9.56166 1.43751 9.56012 1.43751 9.55855 1.43751C9.55699 1.43751 9.55541 1.43751 9.55382 1.43751C9.55222 1.43751 9.55062 1.43751 9.54899 1.43751C9.54737 1.43751 9.54573 1.43751 9.54408 1.43751C9.54243 1.43751 9.54076 1.43751 9.53908 1.43751C9.53739 1.43751 9.5357 1.43751 9.53398 1.43751C9.53227 1.43751 9.53054 1.43751 9.5288 1.43751C9.52706 1.43751 9.52531 1.43751 9.52354 1.43751C9.52176 1.43751 9.51998 1.43751 9.51818 1.43751C9.51638 1.43751 9.51457 1.43751 9.51274 1.43751C9.51091 1.43751 9.50907 1.43751 9.50721 1.43751C9.50535 1.43751 9.50348 1.43751 9.50159 1.43751C9.49971 1.43751 9.49781 1.43751 9.49589 1.43751C9.49398 1.43751 9.49205 1.43751 9.4901 1.43751C9.48816 1.43751 9.4862 1.43751 9.48423 1.43751C9.48226 1.43751 9.48028 1.43751 9.47828 1.43751C9.47628 1.43751 9.47426 1.43751 9.47224 1.43751C9.47021 1.43751 9.46817 1.43751 9.46611 1.43751C9.46406 1.43751 9.46199 1.43751 9.4599 1.43751C9.45782 1.43751 9.45572 1.43751 9.45361 1.43751C9.4515 1.43751 9.44938 1.43751 9.44724 1.43751C9.4451 1.43751 9.44295 1.43751 9.44078 1.43751C9.43862 1.43751 9.43644 1.43751 9.43425 1.43751C9.43205 1.43751 9.42985 1.43751 9.42763 1.43751C9.42541 1.43751 9.42317 1.43751 9.42093 1.43751C9.41868 1.43751 9.41642 1.43751 9.41415 1.43751C9.41187 1.43751 9.40959 1.43751 9.40729 1.43751C9.40499 1.43751 9.40267 1.43751 9.40034 1.43751C9.39802 1.43751 9.39568 1.43751 9.39333 1.43751C9.39097 1.43751 9.38861 1.43751 9.38623 1.43751C9.38385 1.43751 9.38145 1.43751 9.37905 1.43751C9.37664 1.43751 9.37423 1.43751 9.37179 1.43751C9.36936 1.43751 9.36692 1.43751 9.36446 1.43751C9.362 1.43751 9.35953 1.43751 9.35705 1.43751C9.35457 1.43751 9.35207 1.43751 9.34956 1.43751C9.34705 1.43751 9.34453 1.43751 9.342 1.43751C9.33946 1.43751 9.33692 1.43751 9.33436 1.43751C9.3318 1.43751 9.32923 1.43751 9.32664 1.43751C9.32406 1.43751 9.32146 1.43751 9.31885 1.43751C9.31624 1.43751 9.31362 1.43751 9.31098 1.43751C9.30835 1.43751 9.3057 1.43751 9.30304 1.43751C9.30038 1.43751 9.29771 1.43751 9.29503 1.43751C9.29234 1.43751 9.28965 1.43751 9.28694 1.43751C9.28423 1.43751 9.28151 1.43751 9.27878 1.43751C9.27604 1.43751 9.2733 1.43751 9.27054 1.43751C9.26779 1.43751 9.26502 1.43751 9.26224 1.43751C9.25945 1.43751 9.25666 1.43751 9.25386 1.43751C9.25105 1.43751 9.24823 1.43751 9.2454 1.43751C9.24258 1.43751 9.23974 1.43751 9.23688 1.43751C9.23403 1.43751 9.23117 1.43751 9.22829 1.43751C9.22541 1.43751 9.22253 1.43751 9.21963 1.43751C9.21673 1.43751 9.21381 1.43751 9.21089 1.43751C9.20797 1.43751 9.20503 1.43751 9.20209 1.43751C9.19914 1.43751 9.19618 1.43751 9.19321 1.43751C9.19025 1.43751 9.18727 1.43751 9.18427 1.43751C9.18128 1.43751 9.17828 1.43751 9.17526 1.43751C9.17225 1.43751 9.16922 1.43751 9.16618 1.43751C9.16315 1.43751 9.1601 1.43751 9.15704 1.43751C9.15398 1.43751 9.15091 1.43751 9.14783 1.43751C9.14474 1.43751 9.14165 1.43751 9.13855 1.43751C9.13544 1.43751 9.13233 1.43751 9.1292 1.43751C9.12607 1.43751 9.12294 1.43751 9.11979 1.43751C9.11664 1.43751 9.11348 1.43751 9.11031 1.43751C9.10714 1.43751 9.10396 1.43751 9.10077 1.43751C9.09757 1.43751 9.09437 1.43751 9.09116 1.43751C9.08794 1.43751 9.08472 1.43751 9.08148 1.43751C9.07825 1.43751 9.075 1.43751 9.07175 1.43751C9.06849 1.43751 9.06523 1.43751 9.06195 1.43751C9.05867 1.43751 9.05538 1.43751 9.05208 1.43751C9.04879 1.43751 9.04548 1.43751 9.04216 1.43751C9.03884 1.43751 9.03551 1.43751 9.03217 1.43751C9.02883 1.43751 9.02548 1.43751 9.02212 1.43751C9.01876 1.43751 9.01539 1.43751 9.01201 1.43751C9.00863 1.43751 9.00523 1.43751 9.00183 1.43751C8.99843 1.43751 8.99502 1.43751 8.9916 1.43751C8.98818 1.43751 8.98475 1.43751 8.9813 1.43751C8.97786 1.43751 8.97441 1.43751 8.97095 1.43751C8.96749 1.43751 8.96402 1.43751 8.96054 1.43751C8.95706 1.43751 8.95356 1.43751 8.95006 1.43751C8.94656 1.43751 8.94305 1.43751 8.93953 1.43751C8.93601 1.43751 8.93248 1.43751 8.92894 1.43751C8.9254 1.43751 8.92185 1.43751 8.91829 1.43751C8.91473 1.43751 8.91116 1.43751 8.90759 1.43751C8.90401 1.43751 8.90042 1.43751 8.89682 1.43751C8.89323 1.43751 8.88962 1.43751 8.886 1.43751C8.88239 1.43751 8.87876 1.43751 8.87513 1.43751C8.87149 1.43751 8.86785 1.43751 8.86419 1.43751C8.86054 1.43751 8.85688 1.43751 8.85321 1.43751C8.84954 1.43751 8.84585 1.43751 8.84216 1.43751C8.83847 1.43751 8.83478 1.43751 8.83107 1.43751C8.82736 1.43751 8.82364 1.43751 8.81992 1.43751C8.81619 1.43751 8.81245 1.43751 8.80871 1.43751C8.80497 1.43751 8.80121 1.43751 8.79745 1.43751C8.79369 1.43751 8.78992 1.43751 8.78614 1.43751C8.78236 1.43751 8.77857 1.43751 8.77477 1.43751C8.77098 1.43751 8.76717 1.43751 8.76336 1.43751C8.75954 1.43751 8.75572 1.43751 8.75189 1.43751C8.74805 1.43751 8.74421 1.43751 8.74037 1.43751C8.73652 1.43751 8.73266 1.43751 8.72879 1.43751C8.72493 1.43751 8.72105 1.43751 8.71717 1.43751C8.71329 1.43751 8.7094 1.43751 8.7055 1.43751C8.7016 1.43751 8.69769 1.43751 8.69378 1.43751C8.68986 1.43751 8.68594 1.43751 8.682 1.43751C8.67807 1.43751 8.67413 1.43751 8.67018 1.43751C8.66623 1.43751 8.66228 1.43751 8.65831 1.43751C8.65435 1.43751 8.65038 1.43751 8.6464 1.43751C8.64241 1.43751 8.63843 1.43751 8.63443 1.43751C8.63043 1.43751 8.62643 1.43751 8.62242 1.43751C8.6184 1.43751 8.61438 1.43751 8.61036 1.43751C8.60633 1.43751 8.60229 1.43751 8.59825 1.43751C8.59421 1.43751 8.59015 1.43751 8.5861 1.43751C8.58204 1.43751 8.57797 1.43751 8.5739 1.43751C8.56982 1.43751 8.56574 1.43751 8.56165 1.43751C8.55756 1.43751 8.55347 1.43751 8.54936 1.43751C8.54526 1.43751 8.54115 1.43751 8.53703 1.43751C8.53291 1.43751 8.52878 1.43751 8.52465 1.43751C8.52052 1.43751 8.51638 1.43751 8.51223 1.43751C8.50808 1.43751 8.50392 1.43751 8.49976 1.43751C8.4956 1.43751 8.49143 1.43751 8.48725 1.43751C8.48308 1.43751 8.47889 1.43751 8.4747 1.43751C8.47051 1.43751 8.46631 1.43751 8.46211 1.43751C8.4579 1.43751 8.45369 1.43751 8.44947 1.43751C8.44525 1.43751 8.44103 1.43751 8.4368 1.43751C8.43256 1.43751 8.42832 1.43751 8.42408 1.43751C8.41983 1.43751 8.41558 1.43751 8.41132 1.43751C8.40706 1.43751 8.4028 1.43751 8.39852 1.43751C8.39425 1.43751 8.38997 1.43751 8.38568 1.43751C8.3814 1.43751 8.37711 1.43751 8.37281 1.43751C8.36851 1.43751 8.3642 1.43751 8.35989 1.43751C8.35558 1.43751 8.35126 1.43751 8.34694 1.43751C8.34261 1.43751 8.33828 1.43751 8.33394 1.43751C8.3296 1.43751 8.32526 1.43751 8.32091 1.43751C8.31656 1.43751 8.31221 1.43751 8.30784 1.43751C8.30348 1.43751 8.29911 1.43751 8.29474 1.43751C8.29036 1.43751 8.28598 1.43751 8.2816 1.43751C8.27721 1.43751 8.27282 1.43751 8.26842 1.43751C8.26402 1.43751 8.25962 1.43751 8.2552 1.43751C8.25079 1.43751 8.24638 1.43751 8.24196 1.43751C8.23753 1.43751 8.23311 1.43751 8.22867 1.43751C8.22424 1.43751 8.2198 1.43751 8.21535 1.43751C8.21091 1.43751 8.20646 1.43751 8.202 1.43751C8.19754 1.43751 8.19308 1.43751 8.18862 1.43751C8.18415 1.43751 8.17967 1.43751 8.1752 1.43751C8.17072 1.43751 8.16623 1.43751 8.16174 1.43751C8.15725 1.43751 8.15276 1.43751 8.14826 1.43751C8.14376 1.43751 8.13925 1.43751 8.13474 1.43751C8.13023 1.43751 8.12571 1.43751 8.12119 1.43751C8.11667 1.43751 8.11214 1.43751 8.10761 1.43751C8.10308 1.43751 8.09854 1.43751 8.094 1.43751C8.08946 1.43751 8.08491 1.43751 8.08036 1.43751C8.07581 1.43751 8.07125 1.43751 8.06669 1.43751C8.06213 1.43751 8.05756 1.43751 8.05299 1.43751C8.04842 1.43751 8.04384 1.43751 8.03926 1.43751C8.03468 1.43751 8.03009 1.43751 8.0255 1.43751C8.02091 1.43751 8.01631 1.43751 8.01171 1.43751C8.00711 1.43751 8.00251 1.43751 7.9979 1.43751C7.99329 1.43751 7.98867 1.43751 7.98405 1.43751C7.97943 1.43751 7.97481 1.43751 7.97018 1.43751C7.96555 1.43751 7.96092 1.43751 7.95628 1.43751C7.95165 1.43751 7.94701 1.43751 7.94236 1.43751C7.93772 1.43751 7.93307 1.43751 7.92841 1.43751C7.92376 1.43751 7.9191 1.43751 7.91444 1.43751C7.90977 1.43751 7.90511 1.43751 7.90043 1.43751C7.89576 1.43751 7.89109 1.43751 7.88641 1.43751C7.88173 1.43751 7.87705 1.43751 7.87236 1.43751C7.86767 1.43751 7.86298 1.43751 7.85829 1.43751C7.85359 1.43751 7.84889 1.43751 7.84419 1.43751C7.83949 1.43751 7.83478 1.43751 7.83007 1.43751C7.82536 1.43751 7.82064 1.43751 7.81592 1.43751C7.81121 1.43751 7.80648 1.43751 7.80176 1.43751C7.79703 1.43751 7.7923 1.43751 7.78757 1.43751C7.78284 1.43751 7.7781 1.43751 7.77336 1.43751C7.76862 1.43751 7.76388 1.43751 7.75913 1.43751C7.75438 1.43751 7.74963 1.43751 7.74488 1.43751C7.74012 1.43751 7.73537 1.43751 7.73061 1.43751C7.72585 1.43751 7.72108 1.43751 7.71631 1.43751C7.71155 1.43751 7.70678 1.43751 7.702 1.43751C7.69723 1.43751 7.69245 1.43751 7.68767 1.43751C7.68289 1.43751 7.67811 1.43751 7.67332 1.43751C7.66854 1.43751 7.66375 1.43751 7.65896 1.43751C7.65416 1.43751 7.64937 1.43751 7.64457 1.43751C7.63977 1.43751 7.63497 1.43751 7.63017 1.43751C7.62536 1.43751 7.62056 1.43751 7.61575 1.43751C7.61094 1.43751 7.60613 1.43751 7.60131 1.43751C7.5965 1.43751 7.59168 1.43751 7.58686 1.43751C7.58204 1.43751 7.57721 1.43751 7.57239 1.43751C7.56756 1.43751 7.56273 1.43751 7.5579 1.43751C7.55307 1.43751 7.54824 1.43751 7.5434 1.43751C7.53857 1.43751 7.53373 1.43751 7.52889 1.43751C7.52405 1.43751 7.5192 1.43751 7.51436 1.43751C7.50951 1.43751 7.50467 1.43751 7.49982 1.43751C7.49497 1.43751 7.49011 1.43751 7.48526 1.43751C7.48041 1.43751 7.47555 1.43751 7.47069 1.43751C7.46583 1.43751 7.46097 1.43751 7.45611 1.43751C7.45125 1.43751 7.44638 1.43751 7.44151 1.43751C7.43665 1.43751 7.43178 1.43751 7.42691 1.43751C7.42204 1.43751 7.41717 1.43751 7.41229 1.43751C7.40742 1.43751 7.40254 1.43751 7.39766 1.43751C7.39278 1.43751 7.3879 1.43751 7.38302 1.43751C7.37814 1.43751 7.37326 1.43751 7.36837 1.43751C7.36349 1.43751 7.3586 1.43751 7.35371 1.43751C7.34882 1.43751 7.34393 1.43751 7.33904 1.43751C7.33415 1.43751 7.32926 1.43751 7.32437 1.43751C7.31947 1.43751 7.31458 1.43751 7.30968 1.43751C7.30478 1.43751 7.29988 1.43751 7.29498 1.43751C7.29008 1.43751 7.28518 1.43751 7.28028 1.43751C7.27538 1.43751 7.27047 1.43751 7.26557 1.43751C7.26067 1.43751 7.25576 1.43751 7.25085 1.43751C7.24595 1.43751 7.24104 1.43751 7.23613 1.43751C7.23122 1.43751 7.22631 1.43751 7.2214 1.43751C7.21649 1.43751 7.21158 1.43751 7.20666 1.43751C7.20175 1.43751 7.19684 1.43751 7.19192 1.43751C7.18701 1.43751 7.18209 1.43751 7.17717 1.43751C7.17226 1.43751 7.16734 1.43751 7.16242 1.43751C7.15751 1.43751 7.15259 1.43751 7.14767 1.43751C7.14275 1.43751 7.13783 1.43751 7.13291 1.43751C7.12799 1.43751 7.12307 1.43751 7.11815 1.43751C7.11323 1.43751 7.1083 1.43751 7.10338 1.43751C7.09846 1.43751 7.09354 1.43751 7.08861 1.43751C7.08369 1.43751 7.07877 1.43751 7.07384 1.43751C7.06892 1.43751 7.06399 1.43751 7.05907 1.43751C7.05415 1.43751 7.04922 1.43751 7.0443 1.43751C7.03937 1.43751 7.03445 1.43751 7.02952 1.43751C7.0246 1.43751 7.01967 1.43751 7.01475 1.43751C7.00982 1.43751 7.0049 1.43751 6.99997 1.43751C6.99505 1.43751 6.99012 1.43751 6.9852 1.43751C6.98027 1.43751 6.97535 1.43751 6.97042 1.43751C6.9655 1.43751 6.96057 1.43751 6.95565 1.43751C6.95073 1.43751 6.9458 1.43751 6.94088 1.43751C6.93595 1.43751 6.93103 1.43751 6.92611 1.43751C6.92119 1.43751 6.91626 1.43751 6.91134 1.43751C6.90642 1.43751 6.9015 1.43751 6.89658 1.43751C6.89165 1.43751 6.88673 1.43751 6.88181 1.43751C6.87689 1.43751 6.87197 1.43751 6.86706 1.43751C6.86214 1.43751 6.85722 1.43751 6.8523 1.43751C6.84738 1.43751 6.84247 1.43751 6.83755 1.43751C6.83263 1.43751 6.82772 1.43751 6.8228 1.43751C6.81789 1.43751 6.81298 1.43751 6.80806 1.43751C6.80315 1.43751 6.79824 1.43751 6.79333 1.43751C6.78842 1.43751 6.78351 1.43751 6.7786 1.43751C6.77369 1.43751 6.76878 1.43751 6.76388 1.43751C6.75897 1.43751 6.75407 1.43751 6.74916 1.43751C6.74426 1.43751 6.73935 1.43751 6.73445 1.43751C6.72955 1.43751 6.72465 1.43751 6.71975 1.43751C6.71485 1.43751 6.70995 1.43751 6.70506 1.43751C6.70016 1.43751 6.69527 1.43751 6.69037 1.43751C6.68548 1.43751 6.68059 1.43751 6.6757 1.43751C6.6708 1.43751 6.66592 1.43751 6.66103 1.43751C6.65614 1.43751 6.65125 1.43751 6.64637 1.43751C6.64149 1.43751 6.6366 1.43751 6.63172 1.43751C6.62684 1.43751 6.62196 1.43751 6.61708 1.43751C6.61221 1.43751 6.60733 1.43751 6.60246 1.43751C6.59758 1.43751 6.59271 1.43751 6.58784 1.43751C6.58297 1.43751 6.5781 1.43751 6.57324 1.43751C6.56837 1.43751 6.56351 1.43751 6.55865 1.43751C6.55378 1.43751 6.54892 1.43751 6.54407 1.43751C6.53921 1.43751 6.53435 1.43751 6.5295 1.43751C6.52464 1.43751 6.51979 1.43751 6.51494 1.43751C6.5101 1.43751 6.50525 1.43751 6.5004 1.43751C6.49556 1.43751 6.49072 1.43751 6.48588 1.43751C6.48104 1.43751 6.4762 1.43751 6.47137 1.43751C6.46653 1.43751 6.4617 1.43751 6.45687 1.43751C6.45204 1.43751 6.44721 1.43751 6.44239 1.43751C6.43756 1.43751 6.43274 1.43751 6.42792 1.43751C6.4231 1.43751 6.41828 1.43751 6.41347 1.43751C6.40866 1.43751 6.40384 1.43751 6.39904 1.43751C6.39423 1.43751 6.38942 1.43751 6.38462 1.43751C6.37982 1.43751 6.37502 1.43751 6.37022 1.43751C6.36542 1.43751 6.36063 1.43751 6.35584 1.43751C6.35104 1.43751 6.34626 1.43751 6.34147 1.43751C6.33669 1.43751 6.3319 1.43751 6.32713 1.43751C6.32235 1.43751 6.31757 1.43751 6.3128 1.43751C6.30803 1.43751 6.30326 1.43751 6.29849 1.43751C6.29372 1.43751 6.28896 1.43751 6.2842 1.43751C6.27944 1.43751 6.27469 1.43751 6.26993 1.43751C6.26518 1.43751 6.26043 1.43751 6.25569 1.43751C6.25094 1.43751 6.2462 1.43751 6.24146 1.43751C6.23672 1.43751 6.23199 1.43751 6.22725 1.43751C6.22252 1.43751 6.21779 1.43751 6.21307 1.43751C6.20835 1.43751 6.20363 1.43751 6.19891 1.43751C6.19419 1.43751 6.18948 1.43751 6.18477 1.43751C6.18006 1.43751 6.17535 1.43751 6.17065 1.43751C6.16595 1.43751 6.16125 1.43751 6.15656 1.43751C6.15187 1.43751 6.14718 1.43751 6.14249 1.43751C6.1378 1.43751 6.13312 1.43751 6.12844 1.43751C6.12377 1.43751 6.11909 1.43751 6.11442 1.43751C6.10975 1.43751 6.10509 1.43751 6.10043 1.43751C6.09577 1.43751 6.09111 1.43751 6.08646 1.43751C6.0818 1.43751 6.07715 1.43751 6.07251 1.43751C6.06787 1.43751 6.06323 1.43751 6.05859 1.43751C6.05396 1.43751 6.04932 1.43751 6.0447 1.43751C6.04007 1.43751 6.03545 1.43751 6.03083 1.43751C6.02622 1.43751 6.0216 1.43751 6.01699 1.43751C6.01239 1.43751 6.00778 1.43751 6.00318 1.43751C5.99859 1.43751 5.99399 1.43751 5.9894 1.43751C5.98481 1.43751 5.98023 1.43751 5.97565 1.43751C5.97107 1.43751 5.96649 1.43751 5.96192 1.43751C5.95735 1.43751 5.95279 1.43751 5.94823 1.43751C5.94367 1.43751 5.93911 1.43751 5.93456 1.43751C5.93001 1.43751 5.92547 1.43751 5.92092 1.43751C5.91638 1.43751 5.91185 1.43751 5.90732 1.43751C5.90279 1.43751 5.89826 1.43751 5.89375 1.43751C5.88923 1.43751 5.88471 1.43751 5.8802 1.43751C5.87569 1.43751 5.87119 1.43751 5.86669 1.43751C5.86219 1.43751 5.8577 1.43751 5.85321 1.43751C5.84872 1.43751 5.84424 1.43751 5.83977 1.43751C5.83529 1.43751 5.83082 1.43751 5.82635 1.43751C5.82189 1.43751 5.81743 1.43751 5.81297 1.43751C5.80852 1.43751 5.80407 1.43751 5.79963 1.43751C5.79518 1.43751 5.79074 1.43751 5.78631 1.43751C5.78188 1.43751 5.77746 1.43751 5.77304 1.43751C5.76862 1.43751 5.7642 1.43751 5.75979 1.43751C5.75538 1.43751 5.75098 1.43751 5.74659 1.43751C5.74219 1.43751 5.7378 1.43751 5.73341 1.43751C5.72903 1.43751 5.72465 1.43751 5.72028 1.43751C5.71591 1.43751 5.71154 1.43751 5.70718 1.43751C5.70282 1.43751 5.69847 1.43751 5.69412 1.43751C5.68977 1.43751 5.68543 1.43751 5.6811 1.43751C5.67676 1.43751 5.67243 1.43751 5.66811 1.43751C5.66379 1.43751 5.65947 1.43751 5.65516 1.43751C5.65085 1.43751 5.64655 1.43751 5.64225 1.43751C5.63795 1.43751 5.63366 1.43751 5.62938 1.43751C5.6251 1.43751 5.62082 1.43751 5.61655 1.43751C5.61228 1.43751 5.60802 1.43751 5.60376 1.43751C5.5995 1.43751 5.59525 1.43751 5.59101 1.43751C5.58676 1.43751 5.58253 1.43751 5.5783 1.43751C5.57407 1.43751 5.56984 1.43751 5.56563 1.43751C5.56141 1.43751 5.5572 1.43751 5.553 1.43751C5.5488 1.43751 5.5446 1.43751 5.54041 1.43751C5.53623 1.43751 5.53205 1.43751 5.52787 1.43751C5.5237 1.43751 5.51953 1.43751 5.51537 1.43751C5.51121 1.43751 5.50706 1.43751 5.50291 1.43751C5.49877 1.43751 5.49463 1.43751 5.4905 1.43751C5.48637 1.43751 5.48224 1.43751 5.47813 1.43751C5.47401 1.43751 5.4699 1.43751 5.4658 1.43751C5.4617 1.43751 5.45761 1.43751 5.45352 1.43751C5.44943 1.43751 5.44535 1.43751 5.44128 1.43751C5.43721 1.43751 5.43315 1.43751 5.42909 1.43751C5.42504 1.43751 5.42099 1.43751 5.41695 1.43751C5.41291 1.43751 5.40887 1.43751 5.40485 1.43751C5.40082 1.43751 5.39681 1.43751 5.3928 1.43751C5.38879 1.43751 5.38479 1.43751 5.38079 1.43751C5.3768 1.43751 5.37281 1.43751 5.36883 1.43751C5.36486 1.43751 5.36089 1.43751 5.35692 1.43751C5.35296 1.43751 5.34901 1.43751 5.34506 1.43751C5.34112 1.43751 5.33718 1.43751 5.33325 1.43751C5.32932 1.43751 5.3254 1.43751 5.32149 1.43751C5.31758 1.43751 5.31367 1.43751 5.30977 1.43751C5.30588 1.43751 5.30199 1.43751 5.29811 1.43751C5.29423 1.43751 5.29036 1.43751 5.2865 1.43751C5.28263 1.43751 5.27878 1.43751 5.27493 1.43751C5.27109 1.43751 5.26725 1.43751 5.26342 1.43751C5.25959 1.43751 5.25577 1.43751 5.25196 1.43751C5.24815 1.43751 5.24435 1.43751 5.24056 1.43751C5.23676 1.43751 5.23298 1.43751 5.2292 1.43751C5.22542 1.43751 5.22166 1.43751 5.2179 1.43751C5.21414 1.43751 5.21039 1.43751 5.20665 1.43751C5.20291 1.43751 5.19917 1.43751 5.19545 1.43751C5.19173 1.43751 5.18801 1.43751 5.18431 1.43751C5.1806 1.43751 5.17691 1.43751 5.17322 1.43751C5.16953 1.43751 5.16586 1.43751 5.16219 1.43751C5.15852 1.43751 5.15486 1.43751 5.15121 1.43751C5.14756 1.43751 5.14392 1.43751 5.14029 1.43751C5.13666 1.43751 5.13304 1.43751 5.12942 1.43751C5.12581 1.43751 5.12221 1.43751 5.11861 1.43751C5.11502 1.43751 5.11144 1.43751 5.10786 1.43751C5.10429 1.43751 5.10072 1.43751 5.09716 1.43751C5.09361 1.43751 5.09006 1.43751 5.08653 1.43751C5.08299 1.43751 5.07946 1.43751 5.07595 1.43751C5.07243 1.43751 5.06892 1.43751 5.06543 1.43751C5.06193 1.43751 5.05844 1.43751 5.05496 1.43751C5.05148 1.43751 5.04802 1.43751 5.04456 1.43751C5.0411 1.43751 5.03765 1.43751 5.03422 1.43751C5.03078 1.43751 5.02735 1.43751 5.02393 1.43751C5.02051 1.43751 5.01711 1.43751 5.01371 1.43751C5.01031 1.43751 5.00692 1.43751 5.00355 1.43751C5.00017 1.43751 4.9968 1.43751 4.99344 1.43751C4.99009 1.43751 4.98674 1.43751 4.98341 1.43751C4.98007 1.43751 4.97674 1.43751 4.97343 1.43751C4.97011 1.43751 4.96681 1.43751 4.96351 1.43751C4.96022 1.43751 4.95693 1.43751 4.95366 1.43751C4.95039 1.43751 4.94712 1.43751 4.94387 1.43751C4.94062 1.43751 4.93738 1.43751 4.93415 1.43751C4.93092 1.43751 4.9277 1.43751 4.92449 1.43751C4.92128 1.43751 4.91808 1.43751 4.91489 1.43751C4.9117 1.43751 4.90852 1.43751 4.90536 1.43751C4.90219 1.43751 4.89904 1.43751 4.89589 1.43751C4.89275 1.43751 4.88961 1.43751 4.88649 1.43751C4.88337 1.43751 4.88026 1.43751 4.87716 1.43751C4.87406 1.43751 4.87097 1.43751 4.86789 1.43751C4.86481 1.43751 4.86174 1.43751 4.85869 1.43751C4.85563 1.43751 4.85259 1.43751 4.84955 1.43751C4.84652 1.43751 4.8435 1.43751 4.84049 1.43751C4.83748 1.43751 4.83448 1.43751 4.83149 1.43751C4.8285 1.43751 4.82552 1.43751 4.82256 1.43751C4.81959 1.43751 4.81664 1.43751 4.8137 1.43751C4.81076 1.43751 4.80783 1.43751 4.80491 1.43751C4.80199 1.43751 4.79908 1.43751 4.79619 1.43751C4.79329 1.43751 4.79041 1.43751 4.78754 1.43751C4.78466 1.43751 4.7818 1.43751 4.77895 1.43751C4.77611 1.43751 4.77327 1.43751 4.77045 1.43751C4.76762 1.43751 4.76481 1.43751 4.76201 1.43751C4.75921 1.43751 4.75642 1.43751 4.75364 1.43751C4.75086 1.43751 4.7481 1.43751 4.74535 1.43751C4.74259 1.43751 4.73985 1.43751 4.73712 1.43751C4.7344 1.43751 4.73168 1.43751 4.72898 1.43751C4.72627 1.43751 4.72358 1.43751 4.7209 1.43751C4.71822 1.43751 4.71555 1.43751 4.7129 1.43751C4.71024 1.43751 4.7076 1.43751 4.70497 1.43751C4.70234 1.43751 4.69972 1.43751 4.69712 1.43751C4.69451 1.43751 4.69192 1.43751 4.68934 1.43751C4.68676 1.43751 4.68419 1.43751 4.68164 1.43751C4.67908 1.43751 4.67654 1.43751 4.67401 1.43751C4.67148 1.43751 4.66896 1.43751 4.66646 1.43751C4.66396 1.43751 4.66147 1.43751 4.65899 1.43751C4.65651 1.43751 4.65404 1.43751 4.65159 1.43751C4.64914 1.43751 4.6467 1.43751 4.64427 1.43751C4.64184 1.43751 4.63943 1.43751 4.63703 1.43751C4.63463 1.43751 4.63224 1.43751 4.62987 1.43751C4.62749 1.43751 4.62513 1.43751 4.62278 1.43751C4.62043 1.43751 4.6181 1.43751 4.61578 1.43751C4.61345 1.43751 4.61114 1.43751 4.60885 1.43751C4.60655 1.43751 4.60427 1.43751 4.602 1.43751C4.59973 1.43751 4.59748 1.43751 4.59524 1.43751C4.593 1.43751 4.59077 1.43751 4.58855 1.43751C4.58634 1.43751 4.58414 1.43751 4.58195 1.43751C4.57976 1.43751 4.57759 1.43751 4.57542 1.43751C4.57326 1.43751 4.57112 1.43751 4.56898 1.43751C4.56685 1.43751 4.56473 1.43751 4.56262 1.43751C4.56052 1.43751 4.55843 1.43751 4.55635 1.43751C4.55427 1.43751 4.55221 1.43751 4.55016 1.43751C4.54811 1.43751 4.54607 1.43751 4.54405 1.43751C4.54202 1.43751 4.54002 1.43751 4.53802 1.43751C4.53603 1.43751 4.53405 1.43751 4.53208 1.43751C4.53011 1.43751 4.52816 1.43751 4.52622 1.43751C4.52428 1.43751 4.52236 1.43751 4.52045 1.43751C4.51854 1.43751 4.51665 1.43751 4.51477 1.43751C4.51288 1.43751 4.51102 1.43751 4.50917 1.43751C4.50731 1.43751 4.50548 1.43751 4.50365 1.43751C4.50183 1.43751 4.50002 1.43751 4.49822 1.43751C4.49643 1.43751 4.49465 1.43751 4.49288 1.43751C4.49112 1.43751 4.48937 1.43751 4.48763 1.43751C4.4859 1.43751 4.48417 1.43751 4.48247 1.43751C4.48076 1.43751 4.47907 1.43751 4.47739 1.43751C4.47571 1.43751 4.47405 1.43751 4.4724 1.43751C4.47076 1.43751 4.46912 1.43751 4.46751 1.43751C4.46589 1.43751 4.46429 1.43751 4.4627 1.43751C4.46111 1.43751 4.45954 1.43751 4.45798 1.43751C4.45642 1.43751 4.45488 1.43751 4.45335 1.43751C4.45182 1.43751 4.45031 1.43751 4.44881 1.43751C4.44732 1.43751 4.44583 1.43751 4.44437 1.43751C4.4429 1.43751 4.44145 1.43751 4.44001 1.43751C4.43858 1.43751 4.43715 1.43751 4.43575 1.43751C4.43434 1.43751 4.43295 1.43751 4.43158 1.43751C4.4302 1.43751 4.42884 1.43751 4.4275 1.43751C4.42616 1.43751 4.42483 1.43751 4.42352 1.43751C4.4222 1.43751 4.42091 1.43751 4.41963 1.43751C4.41834 1.43751 4.41708 1.43751 4.41583 1.43751C4.41458 1.43751 4.41334 1.43751 4.41213 1.43751C4.41091 1.43751 4.40971 1.43751 4.40852 1.43751C4.40733 1.43751 4.40616 1.43751 4.40501 1.43751C4.40385 1.43751 4.40271 1.43751 4.40159 1.43751C4.40047 1.43751 4.39936 1.43751 4.39827 1.43751C4.39718 1.43751 4.3961 1.43751 4.39504 1.43751C4.39398 1.43751 4.39294 1.43751 4.39192 1.43751C4.39089 1.43751 4.38988 1.43751 4.38889 1.43751V6.43751C4.38988 6.43751 4.39089 6.43751 4.39192 6.43751C4.39294 6.43751 4.39398 6.43751 4.39504 6.43751C4.3961 6.43751 4.39718 6.43751 4.39827 6.43751C4.39936 6.43751 4.40047 6.43751 4.40159 6.43751C4.40271 6.43751 4.40385 6.43751 4.40501 6.43751C4.40616 6.43751 4.40733 6.43751 4.40852 6.43751C4.40971 6.43751 4.41091 6.43751 4.41213 6.43751C4.41334 6.43751 4.41458 6.43751 4.41583 6.43751C4.41708 6.43751 4.41834 6.43751 4.41963 6.43751C4.42091 6.43751 4.4222 6.43751 4.42352 6.43751C4.42483 6.43751 4.42616 6.43751 4.4275 6.43751C4.42884 6.43751 4.4302 6.43751 4.43158 6.43751C4.43295 6.43751 4.43434 6.43751 4.43575 6.43751C4.43715 6.43751 4.43858 6.43751 4.44001 6.43751C4.44145 6.43751 4.4429 6.43751 4.44437 6.43751C4.44583 6.43751 4.44732 6.43751 4.44881 6.43751C4.45031 6.43751 4.45182 6.43751 4.45335 6.43751C4.45488 6.43751 4.45642 6.43751 4.45798 6.43751C4.45954 6.43751 4.46111 6.43751 4.4627 6.43751C4.46429 6.43751 4.46589 6.43751 4.46751 6.43751C4.46912 6.43751 4.47076 6.43751 4.4724 6.43751C4.47405 6.43751 4.47571 6.43751 4.47739 6.43751C4.47907 6.43751 4.48076 6.43751 4.48247 6.43751C4.48417 6.43751 4.4859 6.43751 4.48763 6.43751C4.48937 6.43751 4.49112 6.43751 4.49288 6.43751C4.49465 6.43751 4.49643 6.43751 4.49822 6.43751C4.50002 6.43751 4.50183 6.43751 4.50365 6.43751C4.50548 6.43751 4.50731 6.43751 4.50917 6.43751C4.51102 6.43751 4.51288 6.43751 4.51477 6.43751C4.51665 6.43751 4.51854 6.43751 4.52045 6.43751C4.52236 6.43751 4.52428 6.43751 4.52622 6.43751C4.52816 6.43751 4.53011 6.43751 4.53208 6.43751C4.53405 6.43751 4.53603 6.43751 4.53802 6.43751C4.54002 6.43751 4.54202 6.43751 4.54405 6.43751C4.54607 6.43751 4.54811 6.43751 4.55016 6.43751C4.55221 6.43751 4.55427 6.43751 4.55635 6.43751C4.55843 6.43751 4.56052 6.43751 4.56262 6.43751C4.56473 6.43751 4.56685 6.43751 4.56898 6.43751C4.57112 6.43751 4.57326 6.43751 4.57542 6.43751C4.57759 6.43751 4.57976 6.43751 4.58195 6.43751C4.58414 6.43751 4.58634 6.43751 4.58855 6.43751C4.59077 6.43751 4.593 6.43751 4.59524 6.43751C4.59748 6.43751 4.59973 6.43751 4.602 6.43751C4.60427 6.43751 4.60655 6.43751 4.60885 6.43751C4.61114 6.43751 4.61345 6.43751 4.61578 6.43751C4.6181 6.43751 4.62043 6.43751 4.62278 6.43751C4.62513 6.43751 4.62749 6.43751 4.62987 6.43751C4.63224 6.43751 4.63463 6.43751 4.63703 6.43751C4.63943 6.43751 4.64184 6.43751 4.64427 6.43751C4.6467 6.43751 4.64914 6.43751 4.65159 6.43751C4.65404 6.43751 4.65651 6.43751 4.65899 6.43751C4.66147 6.43751 4.66396 6.43751 4.66646 6.43751C4.66896 6.43751 4.67148 6.43751 4.67401 6.43751C4.67654 6.43751 4.67908 6.43751 4.68164 6.43751C4.68419 6.43751 4.68676 6.43751 4.68934 6.43751C4.69192 6.43751 4.69451 6.43751 4.69712 6.43751C4.69972 6.43751 4.70234 6.43751 4.70497 6.43751C4.7076 6.43751 4.71024 6.43751 4.7129 6.43751C4.71555 6.43751 4.71822 6.43751 4.7209 6.43751C4.72358 6.43751 4.72627 6.43751 4.72898 6.43751C4.73168 6.43751 4.7344 6.43751 4.73712 6.43751C4.73985 6.43751 4.74259 6.43751 4.74535 6.43751C4.7481 6.43751 4.75086 6.43751 4.75364 6.43751C4.75642 6.43751 4.75921 6.43751 4.76201 6.43751C4.76481 6.43751 4.76762 6.43751 4.77045 6.43751C4.77327 6.43751 4.77611 6.43751 4.77895 6.43751C4.7818 6.43751 4.78466 6.43751 4.78754 6.43751C4.79041 6.43751 4.79329 6.43751 4.79619 6.43751C4.79908 6.43751 4.80199 6.43751 4.80491 6.43751C4.80783 6.43751 4.81076 6.43751 4.8137 6.43751C4.81664 6.43751 4.81959 6.43751 4.82256 6.43751C4.82552 6.43751 4.8285 6.43751 4.83149 6.43751C4.83448 6.43751 4.83748 6.43751 4.84049 6.43751C4.8435 6.43751 4.84652 6.43751 4.84955 6.43751C4.85259 6.43751 4.85563 6.43751 4.85869 6.43751C4.86174 6.43751 4.86481 6.43751 4.86789 6.43751C4.87097 6.43751 4.87406 6.43751 4.87716 6.43751C4.88026 6.43751 4.88337 6.43751 4.88649 6.43751C4.88961 6.43751 4.89275 6.43751 4.89589 6.43751C4.89904 6.43751 4.90219 6.43751 4.90536 6.43751C4.90852 6.43751 4.9117 6.43751 4.91489 6.43751C4.91808 6.43751 4.92128 6.43751 4.92449 6.43751C4.9277 6.43751 4.93092 6.43751 4.93415 6.43751C4.93738 6.43751 4.94062 6.43751 4.94387 6.43751C4.94712 6.43751 4.95039 6.43751 4.95366 6.43751C4.95693 6.43751 4.96022 6.43751 4.96351 6.43751C4.96681 6.43751 4.97011 6.43751 4.97343 6.43751C4.97674 6.43751 4.98007 6.43751 4.98341 6.43751C4.98674 6.43751 4.99009 6.43751 4.99344 6.43751C4.9968 6.43751 5.00017 6.43751 5.00355 6.43751C5.00692 6.43751 5.01031 6.43751 5.01371 6.43751C5.01711 6.43751 5.02051 6.43751 5.02393 6.43751C5.02735 6.43751 5.03078 6.43751 5.03422 6.43751C5.03765 6.43751 5.0411 6.43751 5.04456 6.43751C5.04802 6.43751 5.05148 6.43751 5.05496 6.43751C5.05844 6.43751 5.06193 6.43751 5.06543 6.43751C5.06892 6.43751 5.07243 6.43751 5.07595 6.43751C5.07946 6.43751 5.08299 6.43751 5.08653 6.43751C5.09006 6.43751 5.09361 6.43751 5.09716 6.43751C5.10072 6.43751 5.10429 6.43751 5.10786 6.43751C5.11144 6.43751 5.11502 6.43751 5.11861 6.43751C5.12221 6.43751 5.12581 6.43751 5.12942 6.43751C5.13304 6.43751 5.13666 6.43751 5.14029 6.43751C5.14392 6.43751 5.14756 6.43751 5.15121 6.43751C5.15486 6.43751 5.15852 6.43751 5.16219 6.43751C5.16586 6.43751 5.16953 6.43751 5.17322 6.43751C5.17691 6.43751 5.1806 6.43751 5.18431 6.43751C5.18801 6.43751 5.19173 6.43751 5.19545 6.43751C5.19917 6.43751 5.20291 6.43751 5.20665 6.43751C5.21039 6.43751 5.21414 6.43751 5.2179 6.43751C5.22166 6.43751 5.22542 6.43751 5.2292 6.43751C5.23298 6.43751 5.23676 6.43751 5.24056 6.43751C5.24435 6.43751 5.24815 6.43751 5.25196 6.43751C5.25577 6.43751 5.25959 6.43751 5.26342 6.43751C5.26725 6.43751 5.27109 6.43751 5.27493 6.43751C5.27878 6.43751 5.28263 6.43751 5.2865 6.43751C5.29036 6.43751 5.29423 6.43751 5.29811 6.43751C5.30199 6.43751 5.30588 6.43751 5.30977 6.43751C5.31367 6.43751 5.31758 6.43751 5.32149 6.43751C5.3254 6.43751 5.32932 6.43751 5.33325 6.43751C5.33718 6.43751 5.34112 6.43751 5.34506 6.43751C5.34901 6.43751 5.35296 6.43751 5.35692 6.43751C5.36089 6.43751 5.36486 6.43751 5.36883 6.43751C5.37281 6.43751 5.3768 6.43751 5.38079 6.43751C5.38479 6.43751 5.38879 6.43751 5.3928 6.43751C5.39681 6.43751 5.40082 6.43751 5.40485 6.43751C5.40887 6.43751 5.41291 6.43751 5.41695 6.43751C5.42099 6.43751 5.42504 6.43751 5.42909 6.43751C5.43315 6.43751 5.43721 6.43751 5.44128 6.43751C5.44535 6.43751 5.44943 6.43751 5.45352 6.43751C5.45761 6.43751 5.4617 6.43751 5.4658 6.43751C5.4699 6.43751 5.47401 6.43751 5.47813 6.43751C5.48224 6.43751 5.48637 6.43751 5.4905 6.43751C5.49463 6.43751 5.49877 6.43751 5.50291 6.43751C5.50706 6.43751 5.51121 6.43751 5.51537 6.43751C5.51953 6.43751 5.5237 6.43751 5.52787 6.43751C5.53205 6.43751 5.53623 6.43751 5.54041 6.43751C5.5446 6.43751 5.5488 6.43751 5.553 6.43751C5.5572 6.43751 5.56141 6.43751 5.56563 6.43751C5.56984 6.43751 5.57407 6.43751 5.5783 6.43751C5.58253 6.43751 5.58676 6.43751 5.59101 6.43751C5.59525 6.43751 5.5995 6.43751 5.60376 6.43751C5.60802 6.43751 5.61228 6.43751 5.61655 6.43751C5.62082 6.43751 5.6251 6.43751 5.62938 6.43751C5.63366 6.43751 5.63795 6.43751 5.64225 6.43751C5.64655 6.43751 5.65085 6.43751 5.65516 6.43751C5.65947 6.43751 5.66379 6.43751 5.66811 6.43751C5.67243 6.43751 5.67676 6.43751 5.6811 6.43751C5.68543 6.43751 5.68977 6.43751 5.69412 6.43751C5.69847 6.43751 5.70282 6.43751 5.70718 6.43751C5.71154 6.43751 5.71591 6.43751 5.72028 6.43751C5.72465 6.43751 5.72903 6.43751 5.73341 6.43751C5.7378 6.43751 5.74219 6.43751 5.74659 6.43751C5.75098 6.43751 5.75538 6.43751 5.75979 6.43751C5.7642 6.43751 5.76862 6.43751 5.77304 6.43751C5.77746 6.43751 5.78188 6.43751 5.78631 6.43751C5.79074 6.43751 5.79518 6.43751 5.79963 6.43751C5.80407 6.43751 5.80852 6.43751 5.81297 6.43751C5.81743 6.43751 5.82189 6.43751 5.82635 6.43751C5.83082 6.43751 5.83529 6.43751 5.83977 6.43751C5.84424 6.43751 5.84872 6.43751 5.85321 6.43751C5.8577 6.43751 5.86219 6.43751 5.86669 6.43751C5.87119 6.43751 5.87569 6.43751 5.8802 6.43751C5.88471 6.43751 5.88923 6.43751 5.89375 6.43751C5.89826 6.43751 5.90279 6.43751 5.90732 6.43751C5.91185 6.43751 5.91638 6.43751 5.92092 6.43751C5.92547 6.43751 5.93001 6.43751 5.93456 6.43751C5.93911 6.43751 5.94367 6.43751 5.94823 6.43751C5.95279 6.43751 5.95735 6.43751 5.96192 6.43751C5.96649 6.43751 5.97107 6.43751 5.97565 6.43751C5.98023 6.43751 5.98481 6.43751 5.9894 6.43751C5.99399 6.43751 5.99859 6.43751 6.00318 6.43751C6.00778 6.43751 6.01239 6.43751 6.01699 6.43751C6.0216 6.43751 6.02622 6.43751 6.03083 6.43751C6.03545 6.43751 6.04007 6.43751 6.0447 6.43751C6.04932 6.43751 6.05396 6.43751 6.05859 6.43751C6.06323 6.43751 6.06787 6.43751 6.07251 6.43751C6.07715 6.43751 6.0818 6.43751 6.08646 6.43751C6.09111 6.43751 6.09577 6.43751 6.10043 6.43751C6.10509 6.43751 6.10975 6.43751 6.11442 6.43751C6.11909 6.43751 6.12377 6.43751 6.12844 6.43751C6.13312 6.43751 6.1378 6.43751 6.14249 6.43751C6.14718 6.43751 6.15187 6.43751 6.15656 6.43751C6.16125 6.43751 6.16595 6.43751 6.17065 6.43751C6.17535 6.43751 6.18006 6.43751 6.18477 6.43751C6.18948 6.43751 6.19419 6.43751 6.19891 6.43751C6.20363 6.43751 6.20835 6.43751 6.21307 6.43751C6.21779 6.43751 6.22252 6.43751 6.22725 6.43751C6.23199 6.43751 6.23672 6.43751 6.24146 6.43751C6.2462 6.43751 6.25094 6.43751 6.25569 6.43751C6.26043 6.43751 6.26518 6.43751 6.26993 6.43751C6.27469 6.43751 6.27944 6.43751 6.2842 6.43751C6.28896 6.43751 6.29372 6.43751 6.29849 6.43751C6.30326 6.43751 6.30803 6.43751 6.3128 6.43751C6.31757 6.43751 6.32235 6.43751 6.32713 6.43751C6.3319 6.43751 6.33669 6.43751 6.34147 6.43751C6.34626 6.43751 6.35104 6.43751 6.35584 6.43751C6.36063 6.43751 6.36542 6.43751 6.37022 6.43751C6.37502 6.43751 6.37982 6.43751 6.38462 6.43751C6.38942 6.43751 6.39423 6.43751 6.39904 6.43751C6.40384 6.43751 6.40866 6.43751 6.41347 6.43751C6.41828 6.43751 6.4231 6.43751 6.42792 6.43751C6.43274 6.43751 6.43756 6.43751 6.44239 6.43751C6.44721 6.43751 6.45204 6.43751 6.45687 6.43751C6.4617 6.43751 6.46653 6.43751 6.47137 6.43751C6.4762 6.43751 6.48104 6.43751 6.48588 6.43751C6.49072 6.43751 6.49556 6.43751 6.5004 6.43751C6.50525 6.43751 6.5101 6.43751 6.51494 6.43751C6.51979 6.43751 6.52464 6.43751 6.5295 6.43751C6.53435 6.43751 6.53921 6.43751 6.54407 6.43751C6.54892 6.43751 6.55378 6.43751 6.55865 6.43751C6.56351 6.43751 6.56837 6.43751 6.57324 6.43751C6.5781 6.43751 6.58297 6.43751 6.58784 6.43751C6.59271 6.43751 6.59758 6.43751 6.60246 6.43751C6.60733 6.43751 6.61221 6.43751 6.61708 6.43751C6.62196 6.43751 6.62684 6.43751 6.63172 6.43751C6.6366 6.43751 6.64149 6.43751 6.64637 6.43751C6.65125 6.43751 6.65614 6.43751 6.66103 6.43751C6.66592 6.43751 6.6708 6.43751 6.6757 6.43751C6.68059 6.43751 6.68548 6.43751 6.69037 6.43751C6.69527 6.43751 6.70016 6.43751 6.70506 6.43751C6.70995 6.43751 6.71485 6.43751 6.71975 6.43751C6.72465 6.43751 6.72955 6.43751 6.73445 6.43751C6.73935 6.43751 6.74426 6.43751 6.74916 6.43751C6.75407 6.43751 6.75897 6.43751 6.76388 6.43751C6.76878 6.43751 6.77369 6.43751 6.7786 6.43751C6.78351 6.43751 6.78842 6.43751 6.79333 6.43751C6.79824 6.43751 6.80315 6.43751 6.80806 6.43751C6.81298 6.43751 6.81789 6.43751 6.8228 6.43751C6.82772 6.43751 6.83263 6.43751 6.83755 6.43751C6.84247 6.43751 6.84738 6.43751 6.8523 6.43751C6.85722 6.43751 6.86214 6.43751 6.86706 6.43751C6.87197 6.43751 6.87689 6.43751 6.88181 6.43751C6.88673 6.43751 6.89165 6.43751 6.89658 6.43751C6.9015 6.43751 6.90642 6.43751 6.91134 6.43751C6.91626 6.43751 6.92119 6.43751 6.92611 6.43751C6.93103 6.43751 6.93595 6.43751 6.94088 6.43751C6.9458 6.43751 6.95073 6.43751 6.95565 6.43751C6.96057 6.43751 6.9655 6.43751 6.97042 6.43751C6.97535 6.43751 6.98027 6.43751 6.9852 6.43751C6.99012 6.43751 6.99505 6.43751 6.99997 6.43751C7.0049 6.43751 7.00982 6.43751 7.01475 6.43751C7.01967 6.43751 7.0246 6.43751 7.02952 6.43751C7.03445 6.43751 7.03937 6.43751 7.0443 6.43751C7.04922 6.43751 7.05415 6.43751 7.05907 6.43751C7.06399 6.43751 7.06892 6.43751 7.07384 6.43751C7.07877 6.43751 7.08369 6.43751 7.08861 6.43751C7.09354 6.43751 7.09846 6.43751 7.10338 6.43751C7.1083 6.43751 7.11323 6.43751 7.11815 6.43751C7.12307 6.43751 7.12799 6.43751 7.13291 6.43751C7.13783 6.43751 7.14275 6.43751 7.14767 6.43751C7.15259 6.43751 7.15751 6.43751 7.16242 6.43751C7.16734 6.43751 7.17226 6.43751 7.17717 6.43751C7.18209 6.43751 7.18701 6.43751 7.19192 6.43751C7.19684 6.43751 7.20175 6.43751 7.20666 6.43751C7.21158 6.43751 7.21649 6.43751 7.2214 6.43751C7.22631 6.43751 7.23122 6.43751 7.23613 6.43751C7.24104 6.43751 7.24595 6.43751 7.25085 6.43751C7.25576 6.43751 7.26067 6.43751 7.26557 6.43751C7.27047 6.43751 7.27538 6.43751 7.28028 6.43751C7.28518 6.43751 7.29008 6.43751 7.29498 6.43751C7.29988 6.43751 7.30478 6.43751 7.30968 6.43751C7.31458 6.43751 7.31947 6.43751 7.32437 6.43751C7.32926 6.43751 7.33415 6.43751 7.33904 6.43751C7.34393 6.43751 7.34882 6.43751 7.35371 6.43751C7.3586 6.43751 7.36349 6.43751 7.36837 6.43751C7.37326 6.43751 7.37814 6.43751 7.38302 6.43751C7.3879 6.43751 7.39278 6.43751 7.39766 6.43751C7.40254 6.43751 7.40742 6.43751 7.41229 6.43751C7.41717 6.43751 7.42204 6.43751 7.42691 6.43751C7.43178 6.43751 7.43665 6.43751 7.44151 6.43751C7.44638 6.43751 7.45125 6.43751 7.45611 6.43751C7.46097 6.43751 7.46583 6.43751 7.47069 6.43751C7.47555 6.43751 7.48041 6.43751 7.48526 6.43751C7.49011 6.43751 7.49497 6.43751 7.49982 6.43751C7.50467 6.43751 7.50951 6.43751 7.51436 6.43751C7.5192 6.43751 7.52405 6.43751 7.52889 6.43751C7.53373 6.43751 7.53857 6.43751 7.5434 6.43751C7.54824 6.43751 7.55307 6.43751 7.5579 6.43751C7.56273 6.43751 7.56756 6.43751 7.57239 6.43751C7.57721 6.43751 7.58204 6.43751 7.58686 6.43751C7.59168 6.43751 7.5965 6.43751 7.60131 6.43751C7.60613 6.43751 7.61094 6.43751 7.61575 6.43751C7.62056 6.43751 7.62536 6.43751 7.63017 6.43751C7.63497 6.43751 7.63977 6.43751 7.64457 6.43751C7.64937 6.43751 7.65416 6.43751 7.65896 6.43751C7.66375 6.43751 7.66854 6.43751 7.67332 6.43751C7.67811 6.43751 7.68289 6.43751 7.68767 6.43751C7.69245 6.43751 7.69723 6.43751 7.702 6.43751C7.70678 6.43751 7.71155 6.43751 7.71631 6.43751C7.72108 6.43751 7.72585 6.43751 7.73061 6.43751C7.73537 6.43751 7.74012 6.43751 7.74488 6.43751C7.74963 6.43751 7.75438 6.43751 7.75913 6.43751C7.76388 6.43751 7.76862 6.43751 7.77336 6.43751C7.7781 6.43751 7.78284 6.43751 7.78757 6.43751C7.7923 6.43751 7.79703 6.43751 7.80176 6.43751C7.80648 6.43751 7.81121 6.43751 7.81592 6.43751C7.82064 6.43751 7.82536 6.43751 7.83007 6.43751C7.83478 6.43751 7.83949 6.43751 7.84419 6.43751C7.84889 6.43751 7.85359 6.43751 7.85829 6.43751C7.86298 6.43751 7.86767 6.43751 7.87236 6.43751C7.87705 6.43751 7.88173 6.43751 7.88641 6.43751C7.89109 6.43751 7.89576 6.43751 7.90043 6.43751C7.90511 6.43751 7.90977 6.43751 7.91444 6.43751C7.9191 6.43751 7.92376 6.43751 7.92841 6.43751C7.93307 6.43751 7.93772 6.43751 7.94236 6.43751C7.94701 6.43751 7.95165 6.43751 7.95628 6.43751C7.96092 6.43751 7.96555 6.43751 7.97018 6.43751C7.97481 6.43751 7.97943 6.43751 7.98405 6.43751C7.98867 6.43751 7.99329 6.43751 7.9979 6.43751C8.00251 6.43751 8.00711 6.43751 8.01171 6.43751C8.01631 6.43751 8.02091 6.43751 8.0255 6.43751C8.03009 6.43751 8.03468 6.43751 8.03926 6.43751C8.04384 6.43751 8.04842 6.43751 8.05299 6.43751C8.05756 6.43751 8.06213 6.43751 8.06669 6.43751C8.07125 6.43751 8.07581 6.43751 8.08036 6.43751C8.08491 6.43751 8.08946 6.43751 8.094 6.43751C8.09854 6.43751 8.10308 6.43751 8.10761 6.43751C8.11214 6.43751 8.11667 6.43751 8.12119 6.43751C8.12571 6.43751 8.13023 6.43751 8.13474 6.43751C8.13925 6.43751 8.14376 6.43751 8.14826 6.43751C8.15276 6.43751 8.15725 6.43751 8.16174 6.43751C8.16623 6.43751 8.17072 6.43751 8.1752 6.43751C8.17967 6.43751 8.18415 6.43751 8.18862 6.43751C8.19308 6.43751 8.19754 6.43751 8.202 6.43751C8.20646 6.43751 8.21091 6.43751 8.21535 6.43751C8.2198 6.43751 8.22424 6.43751 8.22867 6.43751C8.23311 6.43751 8.23753 6.43751 8.24196 6.43751C8.24638 6.43751 8.25079 6.43751 8.2552 6.43751C8.25962 6.43751 8.26402 6.43751 8.26842 6.43751C8.27282 6.43751 8.27721 6.43751 8.2816 6.43751C8.28598 6.43751 8.29036 6.43751 8.29474 6.43751C8.29911 6.43751 8.30348 6.43751 8.30784 6.43751C8.31221 6.43751 8.31656 6.43751 8.32091 6.43751C8.32526 6.43751 8.3296 6.43751 8.33394 6.43751C8.33828 6.43751 8.34261 6.43751 8.34694 6.43751C8.35126 6.43751 8.35558 6.43751 8.35989 6.43751C8.3642 6.43751 8.36851 6.43751 8.37281 6.43751C8.37711 6.43751 8.3814 6.43751 8.38568 6.43751C8.38997 6.43751 8.39425 6.43751 8.39852 6.43751C8.4028 6.43751 8.40706 6.43751 8.41132 6.43751C8.41558 6.43751 8.41983 6.43751 8.42408 6.43751C8.42832 6.43751 8.43256 6.43751 8.4368 6.43751C8.44103 6.43751 8.44525 6.43751 8.44947 6.43751C8.45369 6.43751 8.4579 6.43751 8.46211 6.43751C8.46631 6.43751 8.47051 6.43751 8.4747 6.43751C8.47889 6.43751 8.48308 6.43751 8.48725 6.43751C8.49143 6.43751 8.4956 6.43751 8.49976 6.43751C8.50392 6.43751 8.50808 6.43751 8.51223 6.43751C8.51638 6.43751 8.52052 6.43751 8.52465 6.43751C8.52878 6.43751 8.53291 6.43751 8.53703 6.43751C8.54115 6.43751 8.54526 6.43751 8.54936 6.43751C8.55347 6.43751 8.55756 6.43751 8.56165 6.43751C8.56574 6.43751 8.56982 6.43751 8.5739 6.43751C8.57797 6.43751 8.58204 6.43751 8.5861 6.43751C8.59015 6.43751 8.59421 6.43751 8.59825 6.43751C8.60229 6.43751 8.60633 6.43751 8.61036 6.43751C8.61438 6.43751 8.6184 6.43751 8.62242 6.43751C8.62643 6.43751 8.63043 6.43751 8.63443 6.43751C8.63843 6.43751 8.64241 6.43751 8.6464 6.43751C8.65038 6.43751 8.65435 6.43751 8.65831 6.43751C8.66228 6.43751 8.66623 6.43751 8.67018 6.43751C8.67413 6.43751 8.67807 6.43751 8.682 6.43751C8.68594 6.43751 8.68986 6.43751 8.69378 6.43751C8.69769 6.43751 8.7016 6.43751 8.7055 6.43751C8.7094 6.43751 8.71329 6.43751 8.71717 6.43751C8.72105 6.43751 8.72493 6.43751 8.72879 6.43751C8.73266 6.43751 8.73652 6.43751 8.74037 6.43751C8.74421 6.43751 8.74805 6.43751 8.75189 6.43751C8.75572 6.43751 8.75954 6.43751 8.76336 6.43751C8.76717 6.43751 8.77098 6.43751 8.77477 6.43751C8.77857 6.43751 8.78236 6.43751 8.78614 6.43751C8.78992 6.43751 8.79369 6.43751 8.79745 6.43751C8.80121 6.43751 8.80497 6.43751 8.80871 6.43751C8.81245 6.43751 8.81619 6.43751 8.81992 6.43751C8.82364 6.43751 8.82736 6.43751 8.83107 6.43751C8.83478 6.43751 8.83847 6.43751 8.84216 6.43751C8.84585 6.43751 8.84954 6.43751 8.85321 6.43751C8.85688 6.43751 8.86054 6.43751 8.86419 6.43751C8.86785 6.43751 8.87149 6.43751 8.87513 6.43751C8.87876 6.43751 8.88239 6.43751 8.886 6.43751C8.88962 6.43751 8.89323 6.43751 8.89682 6.43751C8.90042 6.43751 8.90401 6.43751 8.90759 6.43751C8.91116 6.43751 8.91473 6.43751 8.91829 6.43751C8.92185 6.43751 8.9254 6.43751 8.92894 6.43751C8.93248 6.43751 8.93601 6.43751 8.93953 6.43751C8.94305 6.43751 8.94656 6.43751 8.95006 6.43751C8.95356 6.43751 8.95706 6.43751 8.96054 6.43751C8.96402 6.43751 8.96749 6.43751 8.97095 6.43751C8.97441 6.43751 8.97786 6.43751 8.9813 6.43751C8.98475 6.43751 8.98818 6.43751 8.9916 6.43751C8.99502 6.43751 8.99843 6.43751 9.00183 6.43751C9.00523 6.43751 9.00863 6.43751 9.01201 6.43751C9.01539 6.43751 9.01876 6.43751 9.02212 6.43751C9.02548 6.43751 9.02883 6.43751 9.03217 6.43751C9.03551 6.43751 9.03884 6.43751 9.04216 6.43751C9.04548 6.43751 9.04879 6.43751 9.05208 6.43751C9.05538 6.43751 9.05867 6.43751 9.06195 6.43751C9.06523 6.43751 9.06849 6.43751 9.07175 6.43751C9.075 6.43751 9.07825 6.43751 9.08148 6.43751C9.08472 6.43751 9.08794 6.43751 9.09116 6.43751C9.09437 6.43751 9.09757 6.43751 9.10077 6.43751C9.10396 6.43751 9.10714 6.43751 9.11031 6.43751C9.11348 6.43751 9.11664 6.43751 9.11979 6.43751C9.12294 6.43751 9.12607 6.43751 9.1292 6.43751C9.13233 6.43751 9.13544 6.43751 9.13855 6.43751C9.14165 6.43751 9.14474 6.43751 9.14783 6.43751C9.15091 6.43751 9.15398 6.43751 9.15704 6.43751C9.1601 6.43751 9.16315 6.43751 9.16618 6.43751C9.16922 6.43751 9.17225 6.43751 9.17526 6.43751C9.17828 6.43751 9.18128 6.43751 9.18427 6.43751C9.18727 6.43751 9.19025 6.43751 9.19321 6.43751C9.19618 6.43751 9.19914 6.43751 9.20209 6.43751C9.20503 6.43751 9.20797 6.43751 9.21089 6.43751C9.21381 6.43751 9.21673 6.43751 9.21963 6.43751C9.22253 6.43751 9.22541 6.43751 9.22829 6.43751C9.23117 6.43751 9.23403 6.43751 9.23688 6.43751C9.23974 6.43751 9.24258 6.43751 9.2454 6.43751C9.24823 6.43751 9.25105 6.43751 9.25386 6.43751C9.25666 6.43751 9.25945 6.43751 9.26224 6.43751C9.26502 6.43751 9.26779 6.43751 9.27054 6.43751C9.2733 6.43751 9.27604 6.43751 9.27878 6.43751C9.28151 6.43751 9.28423 6.43751 9.28694 6.43751C9.28965 6.43751 9.29234 6.43751 9.29503 6.43751C9.29771 6.43751 9.30038 6.43751 9.30304 6.43751C9.3057 6.43751 9.30835 6.43751 9.31098 6.43751C9.31362 6.43751 9.31624 6.43751 9.31885 6.43751C9.32146 6.43751 9.32406 6.43751 9.32664 6.43751C9.32923 6.43751 9.3318 6.43751 9.33436 6.43751C9.33692 6.43751 9.33946 6.43751 9.342 6.43751C9.34453 6.43751 9.34705 6.43751 9.34956 6.43751C9.35207 6.43751 9.35457 6.43751 9.35705 6.43751C9.35953 6.43751 9.362 6.43751 9.36446 6.43751C9.36692 6.43751 9.36936 6.43751 9.37179 6.43751C9.37423 6.43751 9.37664 6.43751 9.37905 6.43751C9.38145 6.43751 9.38385 6.43751 9.38623 6.43751C9.38861 6.43751 9.39097 6.43751 9.39333 6.43751C9.39568 6.43751 9.39802 6.43751 9.40034 6.43751C9.40267 6.43751 9.40499 6.43751 9.40729 6.43751C9.40959 6.43751 9.41187 6.43751 9.41415 6.43751C9.41642 6.43751 9.41868 6.43751 9.42093 6.43751C9.42317 6.43751 9.42541 6.43751 9.42763 6.43751C9.42985 6.43751 9.43205 6.43751 9.43425 6.43751C9.43644 6.43751 9.43862 6.43751 9.44078 6.43751C9.44295 6.43751 9.4451 6.43751 9.44724 6.43751C9.44938 6.43751 9.4515 6.43751 9.45361 6.43751C9.45572 6.43751 9.45782 6.43751 9.4599 6.43751C9.46199 6.43751 9.46406 6.43751 9.46611 6.43751C9.46817 6.43751 9.47021 6.43751 9.47224 6.43751C9.47426 6.43751 9.47628 6.43751 9.47828 6.43751C9.48028 6.43751 9.48226 6.43751 9.48423 6.43751C9.4862 6.43751 9.48816 6.43751 9.4901 6.43751C9.49205 6.43751 9.49398 6.43751 9.49589 6.43751C9.49781 6.43751 9.49971 6.43751 9.50159 6.43751C9.50348 6.43751 9.50535 6.43751 9.50721 6.43751C9.50907 6.43751 9.51091 6.43751 9.51274 6.43751C9.51457 6.43751 9.51638 6.43751 9.51818 6.43751C9.51998 6.43751 9.52176 6.43751 9.52354 6.43751C9.52531 6.43751 9.52706 6.43751 9.5288 6.43751C9.53054 6.43751 9.53227 6.43751 9.53398 6.43751C9.5357 6.43751 9.53739 6.43751 9.53908 6.43751C9.54076 6.43751 9.54243 6.43751 9.54408 6.43751C9.54573 6.43751 9.54737 6.43751 9.54899 6.43751C9.55062 6.43751 9.55222 6.43751 9.55382 6.43751C9.55541 6.43751 9.55699 6.43751 9.55855 6.43751C9.56012 6.43751 9.56166 6.43751 9.5632 6.43751C9.56473 6.43751 9.56625 6.43751 9.56775 6.43751C9.56925 6.43751 9.57074 6.43751 9.57221 6.43751C9.57369 6.43751 9.57514 6.43751 9.57659 6.43751C9.57803 6.43751 9.57945 6.43751 9.58086 6.43751C9.58228 6.43751 9.58367 6.43751 9.58505 6.43751C9.58643 6.43751 9.5878 6.43751 9.58915 6.43751C9.5905 6.43751 9.59183 6.43751 9.59315 6.43751C9.59447 6.43751 9.59577 6.43751 9.59706 6.43751C9.59834 6.43751 9.59961 6.43751 9.60087 6.43751C9.60212 6.43751 9.60336 6.43751 9.60459 6.43751C9.60581 6.43751 9.60702 6.43751 9.60821 6.43751C9.60941 6.43751 9.61058 6.43751 9.61174 6.43751C9.6129 6.43751 9.61405 6.43751 9.61518 6.43751C9.61631 6.43751 9.61742 6.43751 9.61852 6.43751C9.61961 6.43751 9.62069 6.43751 9.62176 6.43751C9.62282 6.43751 9.62387 6.43751 9.6249 6.43751C9.62593 6.43751 9.62695 6.43751 9.62795 6.43751C9.62895 6.43751 9.62993 6.43751 9.6309 6.43751C9.63187 6.43751 9.63282 6.43751 9.63375 6.43751C9.63469 6.43751 9.6356 6.43751 9.63651 6.43751C9.63741 6.43751 9.63829 6.43751 9.63916 6.43751C9.64003 6.43751 9.64088 6.43751 9.64172 6.43751C9.64255 6.43751 9.64337 6.43751 9.64417 6.43751C9.64498 6.43751 9.64576 6.43751 9.64653 6.43751C9.6473 6.43751 9.64805 6.43751 9.64879 6.43751C9.64952 6.43751 9.65024 6.43751 9.65094 6.43751C9.65164 6.43751 9.65233 6.43751 9.653 6.43751C9.65366 6.43751 9.65431 6.43751 9.65495 6.43751C9.65558 6.43751 9.6562 6.43751 9.6568 6.43751C9.6574 6.43751 9.65798 6.43751 9.65855 6.43751C9.65911 6.43751 9.65966 6.43751 9.66019 6.43751C9.66072 6.43751 9.66124 6.43751 9.66173 6.43751C9.66223 6.43751 9.66271 6.43751 9.66317 6.43751C9.66364 6.43751 9.66408 6.43751 9.66451 6.43751C9.66494 6.43751 9.66535 6.43751 9.66574 6.43751C9.66613 6.43751 9.66651 6.43751 9.66686 6.43751C9.66722 6.43751 9.66756 6.43751 9.66788 6.43751C9.6682 6.43751 9.66851 6.43751 9.6688 6.43751C9.66908 6.43751 9.66935 6.43751 9.66961 6.43751C9.66986 6.43751 9.67009 6.43751 9.67031 6.43751C9.67052 6.43751 9.67072 6.43751 9.6709 6.43751C9.67108 6.43751 9.67124 6.43751 9.67139 6.43751C9.67153 6.43751 9.67166 6.43751 9.67177 6.43751C9.67188 6.43751 9.67197 6.43751 9.67204 6.43751C9.67211 6.43751 9.67217 6.43751 9.6722 6.43751C9.67224 6.43751 9.67226 6.43751 9.67226 3.93751ZM4.38889 5.5625H9.67226V0.562505H4.38889V5.5625ZM11.5408 1.40159L9.48243 -0.914049L5.74538 2.40777L7.80374 4.72342L11.5408 1.40159ZM9.48249 -0.913977C10.1725 -0.137641 10.1725 1.01264 9.48249 1.78898L5.74532 -1.5327C4.75157 -0.414649 4.75157 1.28965 5.74532 2.4077L9.48249 -0.913977ZM6.88889 3.93751V3.0625H1.88889V3.93751H6.88889Z" fill="#FE89A0" mask="url(#path-2-inside-1_501_419)"/>
</svg>
