<svg width="13" height="13" viewBox="0 0 13 13" fill="none" xmlns="http://www.w3.org/2000/svg">
<path d="M5.66609 1.45001C5.82779 1.10129 5.90868 0.926936 6.02127 0.873244C6.11906 0.826595 6.23389 0.826595 6.33168 0.873244C6.44428 0.926936 6.52517 1.10129 6.68687 1.45001L7.97489 4.22756C8.02273 4.33065 8.04662 4.38219 8.08364 4.42166C8.11633 4.45659 8.15636 4.48452 8.20099 4.50365C8.25149 4.52527 8.30989 4.53119 8.42667 4.54303L11.5729 4.86222C11.9679 4.90229 12.1654 4.92233 12.2533 5.00866C12.3296 5.08365 12.3651 5.18866 12.3492 5.29249C12.3309 5.412 12.1834 5.53976 11.8883 5.79537L9.53812 7.8312C9.45094 7.90673 9.40729 7.94453 9.3797 7.99052C9.35525 8.03128 9.33995 8.07646 9.33485 8.12319C9.32906 8.17603 9.34121 8.23122 9.36559 8.34167L10.022 11.3165C10.1045 11.69 10.1457 11.8767 10.0874 11.9837C10.0368 12.0768 9.94387 12.1416 9.83623 12.1591C9.71232 12.1793 9.54028 12.0839 9.1962 11.8932L6.45567 10.3738C6.35396 10.3174 6.30311 10.2893 6.24905 10.2782C6.2012 10.2685 6.15175 10.2685 6.1039 10.2782C6.04984 10.2893 5.99899 10.3174 5.89729 10.3738L3.15677 11.8932C2.8127 12.0839 2.64067 12.1793 2.51675 12.1591C2.40911 12.1416 2.31618 12.0768 2.26558 11.9837C2.20733 11.8767 2.24854 11.69 2.33095 11.3165L2.98737 8.34167C3.01173 8.23122 3.02391 8.17603 3.01813 8.12319C3.01301 8.07646 2.99773 8.03128 2.97329 7.99052C2.94566 7.94453 2.90205 7.90673 2.81483 7.8312L0.464661 5.79537C0.169611 5.53976 0.0220821 5.412 0.0037397 5.29249C-0.0121859 5.18866 0.0233045 5.08365 0.0996778 5.00866C0.187604 4.92233 0.385103 4.90229 0.780101 4.86222L3.92632 4.54303C4.04309 4.53119 4.10147 4.52527 4.15196 4.50365C4.19663 4.48452 4.23662 4.45659 4.26935 4.42166C4.30634 4.38219 4.33024 4.33065 4.37805 4.22756L5.66609 1.45001Z" fill="#FFD900"/>
</svg>
