<svg width="168" height="168" viewBox="0 0 168 168" fill="none" xmlns="http://www.w3.org/2000/svg">
<path d="M164.061 3.90505C158.855 -1.30168 150.423 -1.30168 145.234 3.90505L83.9827 65.1693L22.731 3.90505C17.5254 -1.30168 9.09257 -1.30168 3.90424 3.90505C-1.30141 9.11178 -1.30141 17.5463 3.90424 22.7357L65.1559 84L3.90424 145.264C-1.30141 150.471 -1.30141 158.906 3.90424 164.095C6.52435 166.716 9.90813 168 13.3263 168C16.7446 168 20.1631 166.716 22.7484 164.095L84 102.831L145.252 164.095C147.872 166.716 151.256 168 154.674 168C158.092 168 161.51 166.716 164.096 164.095C169.301 158.888 169.301 150.454 164.096 145.264L102.844 84L164.096 22.7357C169.301 17.529 169.301 9.09445 164.096 3.90505H164.061Z" fill="black"/>
</svg>
