<svg width="21" height="25" viewBox="0 0 21 25" fill="none" xmlns="http://www.w3.org/2000/svg">
<path d="M10.2248 3.33158L2.14781 11.4079C1.6399 11.9159 0.826983 11.9159 0.369993 11.4079C-0.0872485 10.9 -0.137916 10.0871 0.369993 9.63013L9.36138 0.638745C9.86928 0.130835 10.6822 0.130835 11.1392 0.638745L20.4855 10.036C20.7396 10.2901 20.8411 10.5948 20.8411 10.9502C20.8411 11.3059 20.7396 11.6106 20.4855 11.8645C19.9776 12.3724 19.1647 12.3724 18.7077 11.8645L10.2248 3.33158Z" fill="white"/>
<path d="M9.1582 23.3969V9.68203C9.1582 8.97093 9.71703 8.41211 10.4281 8.41211C11.1392 8.41211 11.698 8.97094 11.698 9.68203V23.3969C11.698 24.108 11.1392 24.6668 10.4281 24.6668C9.71682 24.6668 9.1582 24.108 9.1582 23.3969Z" fill="white"/>
</svg>
