<svg width="133" height="18" viewBox="0 0 133 18" fill="none" xmlns="http://www.w3.org/2000/svg">
<path d="M2 12.6657C5.54202 12.0793 18.5582 7.92887 18.0322 15.4254C17.932 16.8524 19.7941 16.1255 20.3811 15.4747C22.7723 12.8236 23.9295 8.61451 25.4569 5.43813C25.7395 4.85033 27.2583 0.269522 27.8551 2.71135C28.5656 5.61775 28.6783 8.71727 28.5943 11.6966C28.5781 12.2719 28.0415 13.0901 28.5122 13.4214C28.629 13.5035 28.797 13.4666 28.9393 13.4542C30.206 13.3441 31.453 13.0634 32.7174 12.9286C49.2881 11.161 66.1809 11.1723 82.8179 10.6617C98.9411 10.1669 115.078 9.709 131.21 9.709" stroke="#FE89A0" stroke-width="3" stroke-linecap="round"/>
</svg>
