<svg width="88" height="5" viewBox="0 0 88 5" fill="none" xmlns="http://www.w3.org/2000/svg">
<path d="M1 3.41116C1.80073 3.27859 4.74325 2.34032 4.62433 4.03502C4.60169 4.35763 5.02264 4.1933 5.15535 4.04616C5.69592 3.44684 5.95752 2.49532 6.30281 1.77724C6.3667 1.64436 6.71003 0.608798 6.84497 1.16081C7.00558 1.81785 7.03105 2.51855 7.01207 3.19207C7.00841 3.32214 6.8871 3.5071 6.99351 3.58198C7.01991 3.60056 7.0579 3.59221 7.09006 3.58941C7.37642 3.56451 7.65833 3.50107 7.94415 3.47058C11.6902 3.071 15.5091 3.07354 19.2702 2.95812C22.9151 2.84627 83.563 2.74274 87.21 2.74274" stroke="#FE89A0" stroke-linecap="round"/>
</svg>
