<svg width="23" height="23" viewBox="0 0 23 23" fill="none" xmlns="http://www.w3.org/2000/svg">
<path d="M22.7418 6.21231V11.309C20.45 11.0816 18.2648 10.2289 16.4247 8.84404V14.5295C16.4243 16.0723 15.9894 17.5838 15.1697 18.8909C14.35 20.1979 13.1787 21.2476 11.7899 21.9198C10.4012 22.5919 8.85126 22.8592 7.31762 22.6911C5.78399 22.523 4.32872 21.9263 3.11854 20.9694C1.90836 20.0124 0.992225 18.7339 0.475085 17.2804C-0.0420545 15.8268 -0.139277 14.257 0.194555 12.7507C0.528387 11.2444 1.27977 9.86267 2.36262 8.76371C3.44548 7.66475 4.816 6.89304 6.31717 6.53701V12.0026C5.88645 12.3257 5.54546 12.7534 5.32656 13.2453C5.10767 13.7372 5.01815 14.2769 5.0665 14.8132C5.11485 15.3494 5.29947 15.8643 5.60283 16.3092C5.90618 16.754 6.3182 17.1138 6.79976 17.3546C7.28132 17.5954 7.81644 17.7091 8.3543 17.6849C8.89216 17.6607 9.4149 17.4994 9.87289 17.2163C10.3309 16.9333 10.7089 16.5379 10.9711 16.0676C11.2333 15.5974 11.3709 15.0679 11.3709 14.5295V0H16.5295C16.7926 1.55201 17.5319 2.98376 18.645 4.09685C19.7581 5.20993 21.1898 5.94924 22.7418 6.21231Z" fill="#FE89A0"/>
</svg>
