<svg width="291" height="182" viewBox="0 0 291 182" fill="none" xmlns="http://www.w3.org/2000/svg">
<path d="M271.114 157.054H19.2811C8.63246 157.054 0 159.565 0 162.663V176.305C0 179.402 8.63246 181.914 19.2811 181.914H271.114C281.763 181.914 290.395 179.402 290.395 176.305V162.663C290.395 159.565 281.763 157.054 271.114 157.054Z" fill="black"/>
<path d="M271.114 78.5268H19.2811C8.63246 78.5268 0 81.0381 0 84.1359V97.7777C0 100.875 8.63246 103.387 19.2811 103.387H271.114C281.763 103.387 290.395 100.875 290.395 97.7777V84.1359C290.395 81.0381 281.763 78.5268 271.114 78.5268Z" fill="black"/>
<path d="M271.114 0H19.2811C8.63246 0 0 2.51126 0 5.60906V19.2509C0 22.3487 8.63246 24.8599 19.2811 24.8599H271.114C281.763 24.8599 290.395 22.3487 290.395 19.2509V5.60906C290.395 2.51126 281.763 0 271.114 0Z" fill="black"/>
</svg>
